<?xml version="1.0" standalone="no"?>
<!DOCTYPE svg PUBLIC "-//W3C//DTD SVG 1.1//EN" "http://www.w3.org/Graphics/SVG/1.1/DTD/svg11.dtd" >
<svg xmlns="http://www.w3.org/2000/svg" xmlns:xlink="http://www.w3.org/1999/xlink" version="1.1">
<metadata></metadata>
<defs>
<font id="milestone_free_versionscript" horiz-adv-x="0" >
<font-face units-per-em="2048" ascent="1536" descent="-512" />
<missing-glyph horiz-adv-x="307" />
<glyph />
<glyph unicode="&#xd;" horiz-adv-x="376" />
<glyph />
<glyph />
<glyph unicode=" "  horiz-adv-x="307" />
<glyph unicode="&#x09;" horiz-adv-x="307" />
<glyph unicode="&#xa0;" horiz-adv-x="307" />
<glyph unicode="A" horiz-adv-x="1224" d="M-276 160q4 54 32 110t78 99q48 -73 134 -91q25 -5 52 -5q65 1 140 31q106 42 202 138q78 78 165 192t163 225t154.5 222t166 210t171.5 161q130 93 256 109q-45 -2 -93 -2q-102 0 -215 10q-31 3 -94.5 9.5t-86 8.5t-78.5 4q-14 1 -26 1q-35 0 -48 -5 q-89 -11 -153.5 -71.5t-92.5 -143.5q-18 -48 -19 -97q0 -7 1 -13q3 -56 21 -100t61 -70q40 -25 96 -25h8q-37 -46 -83 -76.5t-92 -42.5q-48 -13 -96 -14h-6q-45 0 -85 14q-43 15 -81 38.5t-66 59.5q-26 37 -42 79q-15 41 -16 91q0 54 20 111q38 108 133.5 197.5t218.5 122.5 q107 29 237 30q10 0 20 1q117 0 198 -12q88 -12 250 -40q164 -31 510 -55q-21 -7 -58.5 -60t-88 -149t-100.5 -197t-115.5 -243.5t-112.5 -248t-112 -250.5t-95 -212q-43 -98 -43 -157q0 -34 14 -54h-330q173 249 406 762q-114 6 -273 6q-60 -92 -229 -324 q-183 -251 -264 -329q-175 -169 -332 -197q-31 -6 -60 -6q-34 0 -64 8q-56 16 -92 51q-34 35 -52 85q-14 41 -15 85q0 9 1 19zM901 885q160 -8 254 -8l293 573q-85 0 -190 -84t-197 -211t-160 -270z" />
<glyph unicode="B" horiz-adv-x="1351" d="M-72 258q43 -10 85 -10q125 0 237 90q73 58 146.5 159t137.5 213.5t128 226t141.5 224t154.5 180.5q52 46 94 68q37 19 63 19h7q28 -3 47 -21.5t27 -50.5q-55 -7 -146.5 -112.5t-168.5 -230.5t-105 -206q39 -7 78 -7q126 0 240 78q150 102 213 271q35 96 35 171 q0 74 -34 128q-68 108 -261 123q-28 2 -55 2q-191 0 -344 -99q-118 -76 -161 -176q-18 -41 -18 -75q0 -44 30 -75q29 -30 85 -40q-91 -144 -207 -158q-12 -2 -24 -2q-73 0 -125 59q-52 57 -52 136q0 19 3 38q8 53 38 105q47 81 123 149.5t202.5 125.5t280.5 77q60 8 118 8 q100 0 190 -24q142 -38 229 -115q86 -77 128 -177q28 -69 29 -139q0 -32 -6 -63q-21 -111 -114 -200.5t-256 -136.5q77 -35 113 -111q31 -66 31 -144q-1 -12 -1 -24q-6 -92 -41 -193q-66 -165 -185 -269q-110 -96 -233 -96q-11 0 -22 1q-135 9 -213 116q-52 72 -53 155 q0 39 12 81q38 131 192 199q-49 -80 -49 -128v-10q6 -50 42 -67q25 -12 60 -13q16 0 33 3q61 8 110 37.5t75 70.5t38 89q5 22 5 42q1 26 -7 52q-14 46 -46 84.5t-94 62.5t-144 25q-76 -130 -128 -224.5t-81 -149t-41 -75.5q-42 -75 -71.5 -120t-69.5 -93.5t-82 -71 t-88 -22.5q-57 0 -101 14.5t-72 36.5t-49 59t-31.5 70t-21.5 80z" />
<glyph unicode="C" horiz-adv-x="1122" d="M44 294q-4 30 -4 63q0 93 30 207q40 156 133 327q143 261 327 424q90 81 207 141.5t231 87.5q59 14 115 14q51 0 99 -12q99 -25 147 -106q28 -50 30 -110v-10q-1 -54 -21 -106q-22 -56 -60.5 -104t-94.5 -83t-118 -48q-2 37 -2 54q0 12 1 15v6q0 24 -9 140q18 -14 40 -14 q10 0 21 2q35 10 65.5 34t48.5 62q14 28 14 55q0 9 -1 17q-13 69 -93 69h-13q-88 -8 -216 -87t-252.5 -208.5t-187.5 -263.5q-57 -124 -79 -238q-13 -70 -14 -128q0 -37 6 -69q14 -84 58 -139.5t113 -70.5q39 -6 83 -7h5q42 0 94 15q55 16 107.5 42t107.5 74t99 112l47 -50 q-97 -170 -218 -285q-122 -116 -239 -164q-108 -45 -212 -44h-17q-100 4 -181.5 50t-132 133t-64.5 203z" />
<glyph unicode="D" horiz-adv-x="1480" d="M-55 183q1 50 20 102q30 81 92.5 143t154.5 90q38 11 78 11q58 0 122 -23q55 148 181.5 351t255 351t185.5 148l109 -92q-9 7 -21 7q-27 -1 -69 -37q-61 -54 -132 -155t-141 -221t-125 -238.5t-77 -195.5q48 -78 130 -115q74 -33 151 -33h17q86 4 164.5 33.5t126.5 77.5 q115 117 159 289q27 103 27 205q0 69 -12 137q-20 107 -73.5 195t-125.5 145q-74 58 -162 88q-79 26 -158 26h-18q-88 -4 -176.5 -45t-156.5 -118q-61 -71 -72 -170q-2 -16 -2 -31q0 -70 40 -98q19 -13 45 -13q15 0 32 4q-44 -101 -118.5 -160t-153.5 -59q-60 0 -100.5 36.5 t-52.5 96.5q-7 36 -7 75q0 26 3 54q8 68 43.5 140t90.5 125q100 98 228 157q129 60 259 76q52 6 103 7q79 1 159 -15q132 -24 240.5 -85t192.5 -165t121 -237q26 -96 26 -198q0 -101 -26 -209q-52 -216 -195 -394q-101 -124 -219 -188q-110 -59 -217 -58h-17 q-107 5 -198.5 69t-151.5 185q-116 -254 -392 -254h-9q-61 1 -103 26.5t-59 65.5q-16 38 -16 85v6zM86 238q33 -14 65 -14q37 0 75 20q68 36 110 131q-20 15 -58 17q-4 0 -8 1q-34 -1 -68 -13q-38 -14 -72 -51t-44 -91z" />
<glyph unicode="E" horiz-adv-x="874" d="M-98 427q33 197 166 352q164 190 406 226q20 3 40 5q-45 40 -57 94q-5 22 -5 43q0 32 11 65q18 54 61 107t101 93.5t133 65.5t151 25q55 0 101 -23t73.5 -58.5t38.5 -79.5q7 -26 7 -50q1 -18 -3 -34q-8 -40 -37.5 -74.5t-78.5 -50.5q-23 -7 -44 -7q-22 0 -42 8 q-40 16 -58 68q24 -7 45 -7q45 0 74 33q23 26 23 55q0 13 -5 27q-17 53 -87 59q-8 1 -17 1q-66 0 -126 -29.5t-97 -75.5q-36 -46 -56 -96q-13 -33 -14 -64q0 -16 4 -32q10 -46 49 -72q39 0 67.5 -15.5t40 -38.5t10 -50t-18.5 -49q-25 -31 -61 -31q-18 0 -40 8q-63 24 -92 88 q-57 -6 -111 -35t-96.5 -72t-76 -97.5t-53.5 -112.5q-19 -58 -24 -116q-2 -19 -1 -36q1 -38 7 -72q10 -50 40.5 -90t79.5 -61q48 -18 104 -19h5q54 0 114 21q63 22 121.5 57.5t111.5 92t88 123.5l41 -62q-64 -131 -185.5 -241t-254.5 -170t-244 -60q-194 0 -282 145 q-56 92 -56 215q0 49 9 104z" />
<glyph unicode="F" horiz-adv-x="1097" d="M-131 1102q8 116 64 206.5t145.5 139.5t207.5 61q27 3 55 3q93 0 196 -31q39 -12 104.5 -32.5t101 -31.5t86.5 -24.5t83 -17.5q26 -3 53 -3h13q34 1 60 10q36 11 63.5 55t33.5 91l223 8q-12 -8 -42.5 -65t-73 -149.5t-77 -170t-76.5 -172.5t-49 -111h197l-45 -82h-178 q-172 -393 -314 -630q-277 -459 -518 -459q-86 299 -176 483q70 -30 144 -36q14 -1 29 -1q63 0 129 21q82 26 149 88q179 162 360 532h-303l53 84h291q11 23 40.5 90.5t73 167.5t64.5 148q-38 -8 -98 -8q-84 0 -208 16q-216 28 -284 27q-122 0 -196 -45.5t-96 -114.5 q-8 -27 -8 -52q0 -39 19 -75q32 -60 107 -80q24 -7 53 -7q60 0 138 30q-94 -229 -296 -229q-15 0 -30 1q-121 11 -199 117q-70 94 -70 216q0 16 1 32z" />
<glyph unicode="G" horiz-adv-x="1103" d="M-43 400q2 90 33 203.5t90 236.5q143 295 391 493q246 197 510 197q24 0 49 -2q131 -10 189 -90q35 -48 35 -109q0 -39 -15 -84q-46 -132 -132 -173q-29 -14 -55 -14q-31 0 -56 21q-38 31 -38 88q0 19 4 41q0 3 1 6q23 -19 54.5 -11t60 28.5t47.5 53.5q18 31 18 62 q0 76 -119 87q-12 1 -25 1q-70 0 -149 -37q-93 -44 -177 -122t-156.5 -172t-123.5 -191q-75 -140 -107 -261q-22 -87 -22 -153q0 -25 3 -47q12 -80 53 -129t106 -59q16 -3 32 -3q55 0 120 28q86 36 174.5 111t177 197.5t155.5 272.5h177l4 -2q-42 -52 -115 -218 t-166.5 -380.5t-169.5 -345.5q-56 -96 -109.5 -176.5t-110 -151.5t-110.5 -119t-107 -77q-49 -26 -95 -26h-7q-50 2 -94 34q-59 45 -90 124q-24 58 -24 122q0 22 2 44q11 87 67 148q77 -81 173 -82q2 -1 4 -1q93 0 186 68q95 69 188 201.5t168 311.5q-150 -177 -304 -263 q-148 -83 -275 -83h-9q-71 2 -129.5 30.5t-100 79t-62.5 126.5q-19 68 -19 150v16z" />
<glyph unicode="H" horiz-adv-x="1521" d="M-168 1180q15 114 80 186q66 72 166 98q78 20 167 20q26 0 54 -2q121 -8 258 -46q30 -9 99 -33.5t131 -43.5t118 -28q39 -6 72 -6q165 0 184 158h283q-11 -8 -44 -67.5t-85 -163t-98.5 -198.5t-109.5 -224t-93 -189h325l430 860h216l-482 -950q-44 -90 -72 -151t-61 -144 q-32 -84 -42 -148q-5 -30 -5 -55q0 -29 6 -53h-285l250 555h-319q-32 -67 -53.5 -110t-61 -118.5t-70 -128t-75.5 -123.5t-83.5 -120.5t-87.5 -103.5t-94.5 -88.5t-97.5 -59.5t-102 -31q-74 0 -132 23t-102 73t-61 138q-9 46 -9 102q0 49 7 105q60 -36 130 -52 q55 -12 114 -12q17 1 33 1q78 4 158 46t147 119q114 129 208 340h-190l65 86h166q44 94 152.5 312t140.5 278q-45 -9 -93 -10h-23q-34 0 -60 2q-35 3 -86.5 14.5t-77 19t-80.5 23.5q-85 22 -169 32q-53 6 -103 6q-29 0 -59 -2q-78 -6 -130.5 -39.5t-60.5 -94.5 q-2 -11 -2 -22q-1 -40 23 -76q30 -46 89 -56q7 -1 15 -1q55 0 131 60q2 -20 2 -39q-1 -54 -17 -104q-22 -66 -63.5 -108t-93.5 -65q-44 -20 -87 -20q-7 0 -15 1q-59 4 -114.5 34.5t-99 83t-63.5 133.5q-13 50 -13 105q0 35 5 72z" />
<glyph unicode="I" horiz-adv-x="905" d="M-98 213q40 -10 81 -10q120 0 246 86q88 60 167.5 145t138 172.5t119.5 195t107 200.5t104.5 201t109.5 186q-30 -7 -64 -7q-41 0 -89 10q-87 20 -163.5 51t-150.5 56q-54 18 -102 18q-18 -1 -36 -3q-62 -10 -100 -66q-30 -38 -38 -83q-3 -17 -3 -33q-1 -25 7 -48 q14 -36 43.5 -62.5t73.5 -28.5h7q41 0 91 21q-71 -114 -159 -166q-77 -46 -149 -45q-11 0 -22 1q-99 8 -155 102q-43 71 -42 174q0 33 4 68q18 152 130 232q107 77 273 77h13q68 -1 165.5 -31.5t179 -60t161.5 -47.5q31 -7 60 -6q44 0 79 16q59 27 86 108l176 -135 q-88 -127 -190.5 -332t-181.5 -386t-182 -382t-193 -325q-147 -207 -293 -207l-39 4q-93 18 -165 111.5t-105 228.5z" />
<glyph unicode="J" horiz-adv-x="1146" d="M-243 -158q4 120 82 187q36 30 83 43v-16q0 -109 52 -167q52 -57 139 -57h14q134 6 295 130.5t287 342.5q171 295 473 967q-26 -6 -56 -6t-65 6q-70 13 -133 37.5t-136.5 47.5t-130.5 30q-14 2 -28 2q-43 0 -88 -17q-45 -20 -71.5 -50.5t-31.5 -63.5q-1 -9 -1 -17 q0 -25 9 -49q13 -32 40.5 -56.5t71.5 -38.5q35 -11 74 -11q11 0 23 1q-28 -65 -69 -112t-85 -72t-91 -32q-19 -3 -37 -3q-28 0 -55 7q-43 11 -80.5 40t-63 71.5t-36.5 103.5q-5 33 -5 68q0 31 4 63q20 151 129 229t283 78q78 0 171 -22t164.5 -49.5t143.5 -47.5t122 -21 q2 -1 4 -1q46 0 80 34q36 35 46 113l236 2q-24 -17 -53.5 -59.5t-63 -112.5t-56 -121t-58.5 -137t-46 -109q-361 -833 -498 -1085q-117 -218 -275 -328q-150 -106 -312 -106h-15q-199 5 -307 136q-79 96 -79 216v12z" />
<glyph unicode="K" horiz-adv-x="1435" d="M-68 1178q18 149 127.5 226t282.5 77q75 0 169.5 -11.5t166 -25t145.5 -20.5q43 -4 78 -4q25 0 47 2q50 5 86 34t45 84l248 -4q-48 -42 -446 -827q61 55 211 229q51 60 78 91.5t78 87t83.5 85.5t79 71t82 60t76.5 36q37 15 70 15h7q36 -2 70 -18q22 -10 37 -38 q14 -25 14 -64q-1 -4 -1 -8q-2 -44 -27 -89q-28 29 -63 37q-12 2 -24 2q-24 0 -54 -10q-44 -15 -93.5 -45t-112 -80.5t-130 -109.5t-153.5 -136q-75 -68 -116 -104q71 20 128 20q11 -1 21 -1q66 -4 106 -40t56 -90q8 -28 8 -61q0 -31 -8 -67q-14 -75 -59 -158 q-33 -62 -33 -96q0 -17 8 -28q8 -10 19 -10q18 0 47 23q38 30 74 88q15 24 31.5 53.5t27 47.5t13.5 22l59 -35q-16 -44 -82 -145q-164 -275 -338 -275q-93 -1 -127 69q-13 26 -13 58q0 52 34 119q9 18 34 64t34.5 64t27 53t26 54.5t17 43.5t12.5 43q2 14 2 25q0 53 -41 67 q-24 7 -47 7q-30 0 -60 -11q-54 -20 -99 -63.5t-92 -110.5t-84.5 -132t-78.5 -141q-40 -75 -59 -108q-69 -122 -157 -184q-78 -55 -142 -55q-10 -1 -18 1q-70 8 -124 58q-55 49 -55 151q0 101 52 223q31 -54 85 -76q26 -11 54 -11q30 0 66 13q68 24 128 97q123 148 326 549 q162 327 248 489q-62 -27 -144 -30q-17 -1 -33 -1q-63 0 -117 10q-68 12 -156.5 26t-143.5 16q-107 0 -156 -70q-28 -40 -35 -83q-2 -15 -2 -28q1 -26 9 -48q14 -33 41.5 -57.5t69.5 -27.5h12q37 0 81 15q-32 -76 -88 -130.5t-118 -78.5q-47 -18 -94 -18q-16 0 -30 2 q-62 8 -108 45.5t-68 118.5q-14 49 -14 108q0 40 6 84z" />
<glyph unicode="L" horiz-adv-x="1566" d="M10 1258q6 70 37 135q51 103 151 149q54 25 118 24q55 0 118 -18q148 -44 290.5 -176t221.5 -285q83 123 152.5 214t144.5 170.5t145.5 122t133.5 44.5h8q52 0 100 -24q143 -64 143 -242q0 -12 -1 -24q-4 -85 -40.5 -180t-95.5 -179q-66 -94 -145.5 -157.5t-163.5 -90.5 q-48 -15 -97 -15q-37 0 -75 8q-88 20 -164 93q-76 -118 -174.5 -257.5t-159.5 -215.5q179 -61 285 -77q61 -9 115 -9q93 0 174.5 33t120.5 96q12 -66 12 -122q0 -39 -6 -71q-14 -80 -58 -131t-96.5 -74.5t-109.5 -23.5q-142 0 -287.5 75t-243.5 192q-30 -41 -38.5 -52 t-36 -45.5t-41 -47t-40 -36t-47 -33t-48 -18.5t-56.5 -10h-8q-58 0 -105 26q-50 28 -76.5 73t-32.5 100q-2 16 -2 32q0 39 10 75q16 52 58 94.5t105 60.5q48 16 99 15q81 0 169 -38q41 41 169 209t216 307q-39 63 -72.5 113t-77.5 106.5t-84 95t-85.5 65.5t-87.5 30h-8 q-39 0 -73 -18q-37 -20 -59.5 -52.5t-29.5 -74.5q-3 -17 -3 -33q0 -26 6 -50q10 -40 46.5 -77t93.5 -58q-93 -30 -164 -30q-15 0 -30 1q-81 8 -131 50t-72 104q-18 49 -18 105q0 13 1 27zM131 267q1 -25 15.5 -47t39.5 -32q8 -1 15 -1q26 0 52 13q34 17 60 42t79 82 q17 18 26 28q-59 33 -125 35h-9q-60 0 -98 -25q-28 -18 -42 -44t-13 -51zM1063 981q64 -45 135 -57q27 -4 53 -5q42 -1 81 11q63 18 121.5 61.5t101 103t68.5 134.5t28 153q1 11 1 21q0 47 -12 80q-14 41 -45 53q-10 4 -22 4q-55 0 -143 -78q-108 -96 -209 -232t-158 -249z " />
<glyph unicode="M" horiz-adv-x="2007" d="M-150 960q-1 15 -2 32q0 93 48 200q41 90 112.5 157t153.5 99q84 32 176 42q26 3 51 2q64 0 123 -17q89 -22 151.5 -66.5t96 -106t47.5 -129t14 -149.5q87 167 192 283t209 156q44 17 86 17q57 0 109 -32q73 -52 83 -191q1 -19 2 -39q0 -120 -54 -243q58 98 140 193.5 t170 169.5q86 74 174 108q48 18 88 19q33 0 61 -13q49 -22 63 -75q7 -24 6 -53q0 -34 -9 -73q-17 -73 -47.5 -154t-77 -171t-86.5 -163t-80 -143.5t-54 -101.5q-43 -111 -43 -176q-1 -27 7 -46q17 -42 60 -42q23 0 55 12q89 35 169 150l53 -47q-149 -229 -326 -324 q-93 -49 -166 -49q-38 0 -72 13q-90 37 -96 156v17q0 130 99 312q26 48 61.5 108t67 113t66.5 112t64 109t56 99.5t45 88.5t29 71t10 52t-14 27q-11 6 -25 6q-39 0 -96 -46q-78 -62 -165 -175.5t-180 -262.5t-168 -296.5t-126.5 -283t-58.5 -216.5l-281 -4 q50 132 114.5 278.5t119.5 261.5t110.5 230.5t93.5 201.5q38 88 62 160q23 68 23 112v5q-2 45 -31 62q-11 6 -24 6q-39 0 -99 -53q-80 -71 -172 -200t-191 -290t-183 -316t-145 -277.5t-79 -176.5h-402q96 104 213.5 264.5t225 336t171.5 339.5q49 126 48 207q0 24 -4 45 q-16 71 -63 119q-47 49 -107 67q-44 14 -92 13q-17 1 -34 -1q-67 -6 -125.5 -36t-101.5 -87.5t-55 -131.5q-5 -30 -5 -57q1 -106 73 -170q60 -54 143 -54q43 0 92 14q-64 -140 -162 -188q-53 -26 -106 -26q-44 0 -88 18q-78 31 -129.5 106.5t-61.5 181.5z" />
<glyph unicode="N" horiz-adv-x="1382" d="M-209 995q-2 22 -2 44q0 86 34 164q43 98 120 164t177 104t202 38q216 0 336 -128q97 -104 97 -276q0 -39 -5 -81q37 66 84.5 133.5t105.5 134.5t121.5 118t126.5 82q59 29 119 29h8q64 -2 117 -42q36 -26 52 -65q14 -33 13 -73v-15q-3 -48 -13.5 -97.5t-38.5 -111 t-53.5 -112t-65 -115t-66 -105t-64.5 -97.5q-73 -108 -109 -198q-33 -83 -33 -135v-9q3 -54 38 -74q16 -9 37 -9q36 -1 87 25q81 40 185 146l53 -47q-84 -130 -195 -232t-219 -146q-60 -25 -109 -25q-38 0 -69 16q-34 17 -54.5 44.5t-24.5 65.5q-2 19 -2 38q0 20 2 40 q4 40 22 92t38 100t52 108.5t59.5 110t65.5 112.5l36 60q48 80 71.5 120t60 105.5t50.5 101.5q14 35 28 77q10 31 10 51q0 8 -1 14q-5 24 -24 36q-18 11 -40 11q-37 1 -89 -33q-80 -54 -170 -164t-186 -257t-178.5 -300t-147 -294.5t-94.5 -238.5q-36 0 -182 2h-82 q-67 0 -72 -2q105 161 190 305t170 307.5t126.5 295.5t51.5 246q2 18 2 34q0 90 -46 150q-54 70 -172 83q-19 2 -36 2q-118 0 -188 -93q-58 -78 -58 -178v-16q5 -106 70 -154q36 -28 83 -27q26 0 57 8q-22 -66 -64 -112q-42 -45 -91 -65q-42 -17 -88 -17h-14 q-53 3 -97.5 28.5t-76 77t-38.5 120.5z" />
<glyph unicode="O" horiz-adv-x="948" d="M-30 686q65 268 229 488q176 236 394 310q85 29 172 30q25 0 50 -3q234 -22 314 -225q37 -94 37 -211q0 -115 -36 -253q-68 -265 -234 -488q-176 -235 -385 -313q-89 -34 -177 -34q-32 0 -64 5q-216 30 -294 231q-38 98 -38 220q0 111 32 243zM199 405q18 -180 146 -204 h3q20 -3 40 -3q134 0 275 149q142 153 231 389q74 195 74 349q0 39 -5 75q-25 181 -164 216q-24 6 -48 6q-121 0 -251 -146q-138 -156 -228 -402q-76 -209 -76 -368q0 -31 3 -61z" />
<glyph unicode="P" horiz-adv-x="1265" d="M-113 182q64 7 122 41t109 94t93.5 127.5t87.5 157.5q38 76 97 206.5t102 219.5t99 187.5t118.5 163.5t130.5 94q41 16 88 16q41 0 86 -12q-101 -30 -170 -119t-127 -236q-41 -108 -97 -294t-89 -275q-59 -168 -168 -356q-38 -62 -92 -107q-55 -45 -113 -63 q-44 -13 -85 -13q-13 0 -27 1q-54 6 -99 49t-66 118zM-100 924q-10 37 -10 75q0 110 83 236q136 207 393 319q185 80 365 80q71 0 141 -12q162 -25 281 -98t184 -178q63 -102 65 -210v-7q0 -104 -61 -197q-35 -52 -96.5 -95.5t-132.5 -71t-149 -45.5q-76 -17 -143 -17 q-2 1 -4 1q-69 0 -126 13h-2l21 63q161 4 262 63.5t168 162.5q59 90 61 192v7q0 98 -55 177q-61 88 -179 130q-76 27 -175 26q-54 0 -115 -8q-158 -24 -311.5 -170.5t-196.5 -300.5q-13 -39 -12 -72q0 -25 6 -45q16 -48 74 -61q-36 -65 -88 -95q-41 -23 -78 -23q-10 0 -20 2 q-48 8 -89.5 50t-60.5 109z" />
<glyph unicode="Q" horiz-adv-x="1165" d="M-7 52q2 63 40 118q74 109 239 117h11q83 0 153 -29q75 -30 115 -90q93 65 202 187.5t201 261t148 284.5q47 120 47 210q0 18 -2 36q-10 74 -51 103q-27 18 -63 18q-21 0 -46 -6q-145 -37 -294.5 -168.5t-235.5 -286.5q-36 -62 -53 -118q-16 -50 -16 -93v-10 q2 -46 33.5 -74.5t92.5 -30.5q-87 -132 -202 -132q-9 0 -17 1q-197 14 -197 203v6q0 167 156 410q59 93 136 179.5t164.5 158t183.5 116t182 45.5q250 -3 321 -168q31 -71 31 -158q0 -69 -20 -148q-43 -177 -141 -353.5t-230.5 -326.5t-255.5 -224q113 -144 227 -205 q92 -49 192 -49q50 0 101 12l-199 -313q-118 32 -262 201q-122 139 -195 278q-90 -90 -184 -126q-62 -23 -117 -23q-27 0 -53 6q-69 16 -107 67q-35 47 -35 107v7zM94 59q15 -34 56 -47q25 -7 52 -7q17 0 36 3q46 8 86 29l102 55q-85 111 -180 121h-7q-67 0 -116 -51 q-36 -37 -36 -72q0 -16 7 -31z" />
<glyph unicode="R" horiz-adv-x="1253" d="M-72 82q62 7 118 39.5t105 90t89.5 122t83.5 151.5q36 72 92.5 197.5t97 210t94.5 178.5t113.5 156t124.5 90q40 17 85 17q39 0 81 -13q-97 -29 -163 -113.5t-120 -224.5q-41 -107 -95 -286t-83 -259q-66 -181 -162 -342q-45 -74 -113 -120q-68 -48 -136 -56 q-12 -1 -24 -1q-56 -1 -104 33q-60 40 -84 130zM-59 793q-10 36 -10 73q0 104 79 224q86 131 228 225.5t310 133.5q98 23 191 23q67 0 133 -12q155 -24 269 -94t176 -170q60 -98 62 -200v-7q0 -99 -58 -188q-65 -96 -194.5 -153t-319.5 -58q48 -36 76 -107q87 -237 196 -243 h9q98 0 192 186l63 -33l-53 -94q-55 -96 -102 -168q-63 -97 -137 -135q-37 -19 -71 -19q-42 0 -78 31q-64 56 -77 170q-8 45 -12.5 108.5t-7.5 108t-12.5 89.5t-33 73t-63.5 37h-2l21 61q154 4 250.5 60.5t160.5 154.5q56 86 58 184q0 4 1 9q0 92 -52 168q-59 83 -173 123 q-73 25 -166 26q-52 0 -110 -8q-152 -23 -299 -163t-188 -287q-12 -37 -12 -69q0 -24 7 -44q16 -47 70 -57q-36 -62 -84 -90q-38 -22 -74 -22q-10 0 -20 2q-46 8 -85.5 47.5t-57.5 103.5z" />
<glyph unicode="S" horiz-adv-x="974" d="M-49 238q-3 21 -3 42q0 44 12 84q16 60 51.5 104t86 75.5t110.5 38.5q20 2 40 2q41 0 84 -9q-59 -31 -98 -75t-52 -88q-8 -27 -8 -54q0 -17 3 -34q8 -44 35 -76.5t76 -51.5q42 -16 94 -17q8 0 17 1q89 4 161.5 55.5t103.5 143.5q12 34 12 74q0 66 -33 147 q-35 86 -115 205q-54 77 -68 161q-6 35 -6 68q0 46 12 90q20 76 69 144t128.5 121t166.5 78t169 26h4q79 0 141 -36q64 -37 87 -107q14 -43 14 -86q1 -49 -17 -98q-34 -94 -115 -150q-70 -49 -152 -48q-13 0 -27 1l-115 180q39 -27 83 -26h15q53 5 98 29.5t75 68.5t30 90 q0 81 -75 102q-27 8 -57 8q-53 -1 -114 -25q-96 -38 -157 -108q-90 -104 -90 -218q0 -145 147 -306q157 -187 157 -375q0 -33 -5 -65q-17 -113 -93 -201.5t-179 -136.5q-103 -46 -221 -58q-35 -3 -68 -4q-80 0 -152 20q-102 28 -175.5 104t-86.5 190z" />
<glyph unicode="T" horiz-adv-x="825" d="M-147 418q52 -12 103 -12q86 0 171 34q135 54 235.5 149t203.5 252t163.5 276.5t130.5 275.5q-70 18 -122 29q-54 10 -122 15q-24 2 -46 2q-40 0 -74 -6q-52 -9 -103.5 -36.5t-87.5 -75.5q-49 -65 -59 -143q-3 -19 -3 -36q-1 -54 25 -92q27 -40 76 -40q12 0 25 2 q-41 -62 -109 -93q-61 -28 -121 -28q-7 1 -13 1q-66 4 -124.5 44.5t-79.5 112.5q-15 46 -15 92q1 39 11 75q22 82 77 149t139 115.5t181 67.5q89 18 226 20h43q114 0 216 -7q122 -8 289 -20t267 -15q34 -1 66 -1q291 0 374 83q-29 -153 -147 -250q-52 -40 -114 -60t-117 -23 q-10 -1 -21 -1q-47 0 -107 11q-73 13 -125.5 28t-130.5 41q-31 -51 -80.5 -160t-102.5 -228t-118.5 -258.5t-140 -265.5t-155 -234t-174.5 -178.5t-189 -84.5q-27 135 -77 248.5t-144 224.5z" />
<glyph unicode="U" horiz-adv-x="1335" d="M-12 1037v9q0 69 23 141q24 77 69 136q73 92 203 134q83 27 165 27q48 0 94 -9q128 -24 195 -107q59 -79 59 -192q0 -25 -3 -52q-8 -62 -31.5 -130t-46.5 -115.5t-64 -124.5q-115 -217 -143 -299q-21 -60 -20 -100q0 -68 56 -85q18 -5 42 -6h7q43 0 81 12q40 12 83 54.5 t69 69t73.5 108t64.5 113.5t74 141q9 18 14.5 28t13.5 25.5t15 28.5q171 331 221 443q36 81 36 122q0 15 -5 25h287l-477 -885q-54 -99 -54 -171q0 -29 9 -54q20 -58 76 -58h2q69 0 136 85q18 23 34 50l63 -30q-12 -21 -35.5 -63.5t-40 -71.5t-42 -68.5t-50.5 -66 t-55.5 -51.5t-66.5 -37.5t-75 -12.5q-124 0 -175 84q-36 59 -36 139q0 35 7 74q-91 -145 -210 -225q-111 -75 -202 -74h-14q-68 4 -107 40t-47 96q-4 27 -4 58q0 36 5 76q10 74 38.5 157t65.5 163t81 155q41 68 62 106t49 98t41.5 115.5t15.5 113.5v18q0 82 -32 132 q-36 56 -101 69q-25 7 -50 7q-43 0 -91 -20q-74 -31 -125 -102q-29 -42 -33 -90l-2 -20q0 -37 14 -67q18 -38 49.5 -67.5t74.5 -35.5q11 -1 21 -1q33 0 67 13q-4 -45 -21.5 -88.5t-46.5 -80t-74.5 -59t-99.5 -22.5q-55 0 -96 38.5t-59.5 101t-20.5 135.5z" />
<glyph unicode="V" horiz-adv-x="1220" d="M4 1112q14 86 59 154q65 101 179 160q104 54 227 54q12 0 25 -1q275 -11 333 -203q16 -53 16 -113q0 -134 -81 -303q-35 -81 -95 -212q-93 -206 -108 -265q-6 -24 -6 -42q0 -44 31 -63q13 -8 34 -14q24 -6 49 -6q44 0 90 20q71 32 134 104t116.5 157.5t102.5 189.5 q51 110 83 220.5t42 212.5q2 24 2 48q0 72 -24 128q-32 74 -107 94q66 53 126 53q46 0 89 -31q110 -76 109 -244q0 -45 -7 -96q-34 -225 -182 -491q-74 -134 -159.5 -250t-179.5 -209q-92 -94 -190 -139q-68 -31 -129 -31q-27 0 -53 6q-99 24 -147 98q-44 68 -44 160 q1 9 1 17q4 103 41 219t104 235q49 81 84.5 161t57.5 160q19 69 19 132v20q-4 72 -36 123q-39 54 -105 72q-25 7 -50 7q-40 0 -78 -18q-113 -53 -159 -152q-22 -47 -21 -88q0 -36 16 -68q37 -72 135 -72h11l49 6q-1 -54 -36.5 -107t-87 -85t-100.5 -32h-5q-63 0 -108 46 q-47 48 -64 120q-9 40 -9 85q0 35 6 73z" />
<glyph unicode="W" horiz-adv-x="1792" d="M-63 979q-4 30 -4 60q0 103 52 197q67 120 193 188q114 61 244 62q14 0 27 -1q137 -6 220.5 -62t108.5 -151q11 -42 13 -83v-12q0 -36 -10 -81q-12 -52 -26 -96t-48.5 -117.5t-63 -131t-82.5 -161.5q-34 -65 -55.5 -121t-29.5 -104q-3 -16 -4 -30q0 -27 12 -45 q16 -26 56 -26h3q148 5 334 318q106 178 249 499q69 166 69 256q0 50 -21 76h272q-141 -298 -234 -518q-111 -264 -139 -359q-25 -86 -25 -144q0 -78 45 -107q31 -19 81 -19h3q54 0 109 34q57 35 105.5 88.5t98.5 131t87 148.5t76 155q46 103 75 203q28 100 36 192 q2 20 2 40q0 66 -22 112q-30 60 -99 68q7 41 53 67t94 26q1 -1 2 -1q50 0 86 -17q62 -41 82 -131q11 -49 10 -103q0 -47 -8 -97q-18 -110 -55.5 -225.5t-91.5 -221.5q-95 -185 -221.5 -350.5t-266 -275t-248.5 -111.5h-10q-155 0 -211 88q-37 58 -36 151q0 54 12 119 q-182 -345 -369 -358h-9q-78 0 -130 33q-54 35 -74 94q-15 46 -16 103q0 16 2 34q6 78 34 161.5t74 166.5q22 39 72.5 128t71.5 129.5t51 106t42.5 118t14.5 106.5v18q0 82 -33 132q-37 56 -100 71q-19 5 -40 5q-49 0 -105 -27q-80 -38 -125 -95q-35 -40 -51 -91 q-12 -37 -11 -70q0 -12 1 -24q6 -43 31 -74.5t74 -33.5h6q47 0 113 29q-13 -71 -47 -124.5t-76 -80t-90 -30.5q-8 -1 -17 -1q-39 0 -73 16q-42 19 -75 66t-45 115z" />
<glyph unicode="X" horiz-adv-x="1230" d="M-334 47q59 -20 122 -21q184 0 400 175q231 189 514 600v29q0 203 -53 350q-31 87 -97 146.5t-144 80.5q-33 7 -63 7q-21 0 -41 -4q-48 -8 -82 -39q-32 -31 -50 -71q-15 -34 -16 -75q0 -7 1 -14q3 -49 29 -95q34 -59 88 -79q31 -11 63 -11q25 0 50 6q60 15 125 60 q-34 -101 -89.5 -162t-123.5 -80q-37 -12 -72 -12q-34 0 -66 12q-64 24 -109 73q-44 49 -66 125q-14 51 -15 105q0 27 4 55q15 86 62 149t113 93t146 36q14 1 29 1q67 0 134 -23q161 -49 273 -187.5t112 -307.5q17 21 58 70t69 83t67 82.5t63.5 84.5t47.5 72.5t31 62.5t2 40 h202q-56 -65 -245.5 -315.5t-278.5 -376.5v-74q0 -30 -0.5 -52t0.5 -34q0 -26 1 -73.5t4.5 -81.5t8.5 -64q20 -137 132 -137q101 0 198 160l58 -33q-76 -159 -182.5 -271t-202.5 -112q-42 0 -73 17.5t-49 45t-29 70.5t-14.5 85t-4.5 97q0 17 -4 117q-3 80 -3 131v23 q-75 -163 -209.5 -351.5t-273.5 -330.5q-217 -220 -360 -220q-16 0 -31 3q-60 10 -99 62q-39 53 -53 129q-10 52 -10 110q0 29 2 59z" />
<glyph unicode="Y" horiz-adv-x="1181" d="M-72 1082q4 71 35 143t82 123q134 134 340 134q14 0 27 -1q178 -7 262 -100q69 -76 69 -199q0 -28 -4 -58q-10 -85 -46 -173t-75 -153.5t-83.5 -159t-67.5 -179.5q-13 -47 -13 -83q0 -68 47 -95q24 -14 56 -14q46 0 107 30q115 59 198 186q64 100 158 284t164 370 q49 132 49 191q0 24 -8 36h315q-41 -49 -113 -184q-73 -140 -217.5 -448t-199.5 -421q-135 -278 -326 -513.5t-369 -309.5q-8 107 -112 328q37 -13 75 -13q30 0 60 8q69 18 135 62.5t127.5 110.5t111.5 140t87 152q-48 -85 -193 -182q-138 -94 -222 -94h-7q-125 7 -164 156 q-10 43 -10 89q0 115 61 253q19 41 73.5 137t99.5 177.5t84 186.5t42 183q0 116 -57 173q-44 45 -116 45q-19 0 -40 -3q-79 -11 -134 -59t-85 -109q-18 -36 -18 -73q0 -11 1 -23q8 -49 39 -80t77 -46q20 -6 41 -6q28 0 59 11q-8 -67 -47 -114.5t-84 -67t-90 -19.5 q-64 0 -108.5 38.5t-60.5 100.5q-13 50 -13 105q0 13 1 27z" />
<glyph unicode="Z" horiz-adv-x="1189" d="M-150 160q-8 30 -8 60q0 40 14 76q24 64 78.5 107t124.5 67q58 20 123 20q14 0 28 -1q81 -5 152 -40q72 60 155 163.5t156.5 211.5t147.5 214.5t154.5 196.5t152.5 133q-62 2 -218 47t-212 53q-26 4 -51 4q-45 0 -86 -12q-65 -18 -105 -56t-60 -85q-11 -26 -12 -54 q0 -22 8 -46q16 -53 65 -95q37 -32 84 -44q20 -5 40 -4q29 0 60 9l-192 -249q-132 33 -197 170q-35 73 -35 147q0 60 23 121q35 98 120 169t191 93q75 17 165 18q14 0 27 1q71 1 113 -5q48 -6 156 -22q10 -1 16.5 -2t13.5 -2q95 -14 161 -18q20 -1 43 -2q50 0 111 7 q88 10 165 41v-8q0 -72 -52 -132q-47 -56 -104 -55q-9 0 -18 1q-98 -66 -212.5 -199t-203 -263t-200 -286.5t-189.5 -244.5q30 -32 107 -60.5t160 -42.5q75 -13 147 -13q7 -1 15 -1q78 2 111 24q2 -21 2 -42q0 -79 -31 -139q-39 -76 -114 -101q-31 -10 -68 -10 q-51 0 -112 20q-58 23 -126.5 67t-105.5 74t-100 82q-67 -87 -170 -156t-174 -69q-96 0 -157 45.5t-77 116.5zM-23 252q24 -30 63 -30h14q50 6 108.5 43.5t122.5 99.5q-45 31 -107 31q-35 0 -75 -10q-87 -20 -123 -67q-15 -19 -15 -37q0 -15 12 -30z" />
<glyph unicode="a" horiz-adv-x="907" d="M-2 324q14 92 61 178q79 148 203 260q120 109 236 108h8q61 -5 99.5 -42.5t39.5 -98.5q47 93 47 127q0 7 -2 12h248q-33 -14 -97 -116.5t-130 -235.5q-52 -105 -52 -169q0 -29 11 -50q17 -33 53 -33q18 0 40 8q87 31 175 158l4 6l47 -55q-120 -183 -255 -288 q-119 -93 -201 -93q-11 0 -21 2q-58 8 -76 74q-7 24 -7 57q0 57 20 141q-58 -117 -136 -195.5t-153 -78.5q-59 0 -102 45.5t-59 115.5q-8 37 -8 80q0 39 7 83zM182 349v-9q0 -73 62 -74q71 0 152.5 76.5t140.5 181.5q52 95 52 152q0 55 -44 82q-26 15 -56.5 8.5t-58.5 -22.5 t-57.5 -46t-54 -62t-48.5 -69q-82 -126 -88 -218z" />
<glyph unicode="b" horiz-adv-x="950" d="M-156 0q141 234 553 1118q22 48 36.5 78.5t35.5 71.5t36 66t35.5 56.5t38 50t39.5 38.5t44 29.5t47.5 17t53 6.5t58.5 -8q62 -14 91 -58q25 -38 25 -87q-1 -8 -1 -16q-4 -60 -31.5 -129.5t-75.5 -139.5q-30 -46 -78.5 -93t-103 -87t-95.5 -67t-84 -54l-15 -9l-33 -61 q77 60 150 95q72 36 130 44q23 3 45 3q31 1 59 -7q46 -12 76 -44t40 -81q5 -24 5 -51q1 -28 -5 -58q-10 -60 -45.5 -135.5t-94.5 -154.5q17 -3 34 -3q108 0 181 130l31 -80q-25 -38 -39 -57.5t-39 -48.5t-46.5 -40.5t-50.5 -20.5t-62.5 -1t-71.5 29q-68 -101 -173.5 -168.5 t-191.5 -69.5h-4q-96 0 -142 48q-44 46 -44 117v9q-45 -127 -45 -178h-273zM242 362q42 50 96 76q46 23 105 24q9 0 17 -1q68 -4 136 -49q124 135 124 241q0 69 -55 88q-18 6 -39 6q-63 0 -150 -60q-54 -38 -109 -95zM268 264q-4 -35 24 -55q20 -14 49 -14q11 0 24 2 q81 13 182 135q-39 37 -103 43q-11 1 -21 1q-51 0 -95 -25q-52 -30 -60 -87zM481 905q80 21 185 153q104 129 142 246q14 43 14 73q0 47 -36 59q-3 1 -7 1q-30 -1 -67 -53q-42 -58 -91 -163q-73 -148 -140 -316z" />
<glyph unicode="c" horiz-adv-x="557" d="M-6 165q-3 23 -3 48q0 53 12 114q17 89 58 181q38 86 90.5 158.5t116.5 124.5q64 51 133 69q29 7 59 7q40 0 81 -13q65 -23 73 -100q1 -10 2 -21q0 -66 -42 -131q-48 -75 -121 -96l-84 137q16 -6 32 -6q37 0 76 31q23 20 35.5 40t13.5 35.5t-5 29t-20 20t-31 8t-39.5 -6 t-43.5 -22.5q-81 -50 -137 -174q-46 -103 -47 -194q0 -18 2 -35q11 -105 100 -105q68 0 143.5 43t139.5 135l26 -22l13 -12q10 -10 12 -11q-98 -166 -223.5 -278t-247.5 -115h-3q-75 0 -119 44t-52 117z" />
<glyph unicode="d" horiz-adv-x="1019" d="M-52 329q19 104 85 214q93 155 219 249q102 77 200 76q23 0 46 -4q41 -8 70 -30t36 -56q16 35 162 371q47 112 95 190.5t89 118.5q42 40 84 58q40 17 71 17h3q32 -1 66 -13q103 -38 104 -165q0 -22 -4 -46q-19 -154 -143 -335q-116 -171 -250 -256q-58 -37 -111 -50 q-28 -62 -48 -153q-14 -63 -14 -120q0 -26 3 -51q9 -80 63 -80q73 0 147 49t126 140l43 -62q-98 -179 -220.5 -285t-251.5 -106q-74 0 -116 74q-34 60 -35 139q0 17 2 35q-37 -95 -141.5 -170.5t-190.5 -77.5h-6q-61 0 -107 40q-50 42 -72 114q-12 38 -13 87q0 40 9 88z M155 397q-5 -27 -6 -49q0 -64 48 -79q5 -2 10 -3q12 -3 24 -3q47 -1 104 39q71 50 125 126.5t77 149.5q-40 -32 -83 -32q-14 0 -28 3q45 28 61 93q5 21 5 38q0 35 -21 51q-15 13 -39 10q-87 -12 -175 -129q-81 -107 -102 -215zM807 827q57 17 121.5 79.5t112 140t83.5 159.5 q37 83 37 139q0 54 -31 72q-16 6 -40 -17.5t-54 -75.5t-57.5 -106t-62.5 -133.5t-57 -132t-52 -125.5z" />
<glyph unicode="e" horiz-adv-x="612" d="M-52 178q-3 25 -3 53q0 57 14 121q20 95 66 187q54 109 132.5 191.5t173.5 120.5q45 18 89 17q50 0 100 -22q64 -30 84 -94q9 -31 9 -62q1 -35 -11 -71q-22 -69 -70 -121q-46 -51 -116 -73q-41 -13 -79 -13q-27 0 -55 7q-64 16 -94 66q-29 -57 -29 -100q0 -11 2 -21 q9 -50 47 -76t95 -28h10q75 0 155 42q86 45 144 134q2 -2 22 -19t30 -26q-88 -160 -234.5 -275.5t-292.5 -115.5q-82 0 -130.5 50t-58.5 128zM225 535q34 -25 69 -26q11 0 21 3q52 10 111 76q24 32 40.5 68t18.5 68t-22 44q-6 2 -13 2q-40 0 -112 -74q-86 -88 -113 -161z " />
<glyph unicode="f" horiz-adv-x="727" d="M-56 -62q5 50 13 97t29 110.5t40.5 117t51.5 126.5t58 129.5t63 134.5q64 136 101 211t95 184.5t101 167t96.5 115.5t105.5 77q30 10 60 10q22 0 43 -5q83 -21 117 -83q26 -46 26 -103q0 -20 -4 -42q-12 -82 -61 -173q-69 -128 -192.5 -241t-258.5 -155l-45 -96l106 33 q-7 -25 -7 -48q0 -18 4 -35q10 -39 39 -62.5t63 -33.5q13 -3 26 -3q21 0 43 9q36 14 58 52l47 -53q-25 -59 -65.5 -94.5t-82.5 -41.5q-8 -1 -16 -1q-35 0 -68 22q-42 27 -67 86q25 -60 35 -130q6 -41 6 -82q0 -29 -3 -57q-7 -69 -27.5 -135.5t-55 -119t-81 -90.5t-105.5 -48 q-23 -5 -48 -5q-38 0 -80 10q-45 12 -77.5 34t-50 55t-26.5 69q-7 24 -7 56q0 14 1 31zM173 -77q2 -63 46 -75q14 -4 27 -4q36 0 64 26q38 34 56.5 100.5t23.5 147.5q3 29 3 59q0 51 -7 103q-9 82 -30 144q-45 -85 -82 -168t-70 -176q-31 -89 -31 -150v-7zM475 735 q80 15 191 150q108 130 154 255q20 54 20 89q0 46 -35 57q-15 5 -32 -3.5t-35.5 -31t-37 -49t-40 -67t-39.5 -75.5t-40 -84.5t-37 -83.5t-36.5 -83t-32.5 -74z" />
<glyph unicode="g" horiz-adv-x="843" d="M-184 -332q0 69 44 126.5t117 95.5t146 61.5t153 38.5l113 213q-73 -107 -153 -159q-63 -41 -115 -41q-14 0 -27 3q-53 14 -82 78q-23 53 -23 137q0 18 1 37q7 111 54.5 222t119.5 196t166.5 138.5t187.5 53.5q38 0 62.5 -18t32.5 -46.5t6 -60t-13 -61.5q-20 -56 -66 -84 q-24 -14 -52 -14q-23 0 -48 10q36 21 54 64q14 31 14 58q0 10 -2 18q-6 35 -35 38h-9q-57 0 -122 -66q-69 -72 -117 -174q-45 -102 -45 -167q0 -9 1 -17q7 -69 61 -82q18 -5 36 -5q55 0 108 43q71 57 148 194q57 100 114 222q49 106 49 139q0 6 -1 9h201q2 3 -89.5 -189 t-189 -394.5t-108.5 -221.5q34 5 60 18.5t52 45t41.5 55.5t49.5 83t55 93q31 53 61 99l62 -33q-50 -94 -89 -161.5t-89.5 -141.5t-96 -120.5t-99.5 -79t-107 -36.5q-124 -224 -209.5 -310.5t-190.5 -86.5q-96 0 -144 50.5t-48 129.5zM-29 -283q-9 -36 6 -62t48 -26 q43 0 110 74.5t105 159.5q-124 -21 -189 -55.5t-80 -90.5z" />
<glyph unicode="h" horiz-adv-x="1064" d="M-53 0q39 84 248 512.5t288 603.5q22 48 36.5 78.5t35.5 71.5t36 66t35.5 56.5t38 50t39.5 38.5t44 29.5t47.5 17t53 6.5t58.5 -8q62 -14 91 -58q25 -38 25 -87q-1 -8 -1 -16q-4 -60 -31.5 -129.5t-75.5 -139.5q-60 -91 -171.5 -181.5t-204.5 -148.5l-54 -92 q95 117 193 166q69 34 123 34q24 0 45 -6q37 -11 59.5 -41t28.5 -76q1 -11 0 -22q0 -39 -14 -89q-18 -66 -60 -142q-27 -50 -40 -92q-11 -36 -11 -61q1 -5 1 -9q2 -28 14.5 -44.5t33.5 -19.5q6 -1 13 -1q40 0 82 44q49 51 114 152l41 -64q-3 -5 -25.5 -40.5t-28.5 -44.5 t-26 -40.5t-29 -43.5t-27.5 -38t-30.5 -39.5t-28.5 -33t-32 -33t-30.5 -25.5q-50 -39 -100 -53q-26 -7 -49 -7q-21 1 -39 7q-38 12 -65 44t-29 84q0 6 -1 11q0 48 19 105q17 50 41.5 106.5t45.5 99t40.5 85.5t29.5 73.5t9.5 55t-15.5 37.5q-11 8 -26 8q-29 0 -74 -29 q-69 -45 -135.5 -118t-110.5 -140q-80 -124 -138 -260q-41 -96 -41 -141q0 -19 7 -29h-272zM582 928q80 22 183 148q100 123 134 234q11 36 11 62q0 49 -38 62q-3 1 -7 1q-30 -1 -67 -53q-42 -58 -91 -163q-45 -92 -125 -291z" />
<glyph unicode="i" horiz-adv-x="536" d="M-29 130q-2 15 -2 31q0 119 88 310l158 328q7 25 7 43q0 15 -5 26l234 -2l-197 -401q-41 -79 -41 -131q0 -36 20 -60q22 -26 61 -26q25 0 57 11q98 33 175 138q13 18 25 37l41 -63q-78 -138 -172 -231q-93 -92 -176 -128q-62 -27 -116 -27q-18 0 -36 3q-107 18 -121 142z M297 975q-3 12 -3 24q0 34 25 67q32 40 82 40q58 0 71 -49q3 -12 3 -24q0 -34 -25 -66q-32 -40 -83 -41q-58 0 -70 49z" />
<glyph unicode="j" horiz-adv-x="483" d="M-541 -328q0 66 39 122.5t105 96t140.5 66.5t158.5 43q7 16 144 307t204 457q14 32 17.5 47.5t-1.5 54.5h262q-38 -19 -79 -92q-61 -113 -198 -411.5t-138 -301.5q70 0 167 101.5t187 255.5l63 -27q-17 -31 -44.5 -82.5t-44.5 -83.5t-44 -77t-49 -74t-53.5 -62.5t-63 -55 t-72.5 -39.5t-87 -26q-28 -70 -53 -122t-62.5 -110t-77.5 -95t-95 -61.5t-118 -24.5q-77 0 -142 59t-65 135zM-387 -274v-6q0 -44 29 -64q17 -11 38 -11q18 0 38 7q44 17 77 63q36 54 78 148q-257 -59 -260 -137zM373 1016q8 37 38.5 63.5t67.5 26.5q38 0 59 -26 q15 -20 15 -44q0 -10 -2 -20q-6 -37 -38 -63.5t-69 -26.5q-38 0 -58 26q-15 20 -15 44q0 10 2 20z" />
<glyph unicode="k" horiz-adv-x="999" d="M4 4q-2 -2 -3.5 -2t-1.5 2q0 32 160 398q189 432 314 704q22 48 37 78.5t35 71t35.5 66t36 56.5t38 49.5t39.5 38.5t44 29.5t47.5 17t53 6.5t58.5 -8q62 -13 91 -57q25 -38 25 -88q-1 -8 -1 -16q-4 -60 -31.5 -129.5t-75.5 -139.5q-42 -64 -122 -136t-140 -115.5 t-115 -77.5l-47 -80q49 33 82 53t79 46t79 37t68 17t61 -5.5t43 -37.5q22 -29 22 -73q0 -25 -7 -54q-19 -82 -87 -153q-52 -52 -132 -87t-177 -42q23 -49 64 -79q42 -28 92 -32q8 -1 16 -1q42 0 86 15q52 18 104 66t89 119l49 -45q-48 -103 -140 -230.5t-147 -156.5 q-43 -23 -85 -23t-75 14.5t-67.5 47.5t-56.5 61t-47.5 72.5t-35 64t-24.5 51.5q-40 -73 -60 -125.5t-25.5 -82.5t-15.5 -107zM406 434q71 15 138.5 41.5t129.5 73.5t82 102q11 30 -11.5 52t-58.5 10q-66 -25 -142.5 -105.5t-137.5 -173.5zM557 893q79 21 185 151 q103 129 142 246q14 43 14 73q0 47 -36 60q-3 1 -7 1q-30 0 -68 -53q-43 -59 -91 -163q-69 -142 -139 -315z" />
<glyph unicode="l" horiz-adv-x="563" d="M51 270q8 74 31 176q22 93 56.5 199t81 218t99 217t113.5 194.5t122 151.5q60 62 125 88q35 14 68 14q29 0 56 -10q79 -29 93 -123q4 -25 4 -52q0 -73 -30 -160q-40 -118 -116 -237q-81 -124 -181 -211.5t-200 -111.5q-14 -31 -26.5 -64t-26 -75t-19.5 -78q-5 -31 -5 -60 v-10q1 -32 15.5 -52.5t42.5 -23.5q7 -1 13 0q58 0 129 46q79 52 131 143l43 -62q-50 -92 -104 -165t-118 -132.5t-136 -81.5q-37 -12 -73 -12q-34 0 -69 10q-122 37 -122 206q0 27 3 58zM399 737q54 9 121.5 81t130.5 177q56 90 93 179t45 154q2 13 2 24q0 45 -27 61 q-5 2 -10 2q-28 0 -78 -73q-58 -87 -131 -242q-94 -212 -146 -363z" />
<glyph unicode="m" horiz-adv-x="1269" d="M-125 -2q29 67 166.5 335t173.5 378q25 75 25 118q0 25 -9 39h207q-4 -7 -36.5 -106.5t-63.5 -169.5q89 168 211 239q59 35 106 35q27 0 50 -12q51 -25 51 -97q0 -19 -4 -42q-9 -56 -41 -125q78 158 211 233q78 44 144 44q25 0 48 -6q77 -22 86 -106q1 -9 0 -19 q0 -77 -57 -183q-93 -163 -93 -244q0 -8 1 -15q4 -36 32 -36q12 0 29 7q64 27 160 145l61 -33q-47 -87 -84.5 -145t-86 -116t-101 -87t-109.5 -29h-2q-78 0 -110 81q-16 43 -16 94q0 47 14 101q12 51 77 200q56 127 56 172v7q-3 33 -37 35q-66 0 -131.5 -78t-110.5 -188.5 t-73.5 -227t-28.5 -196.5h-232q155 345 200 481q37 111 37 165q0 52 -34 52q-63 0 -168 -144t-186 -311.5t-90 -244.5h-242z" />
<glyph unicode="n" horiz-adv-x="882" d="M-123 -2l180 377q180 372 180 472q0 15 -4 23h248q-16 -28 -80 -150.5t-77 -144.5q56 77 112 135.5t101.5 90t89.5 50.5t75.5 19t59.5 -6q58 -18 60 -90q0 -3 1 -5q0 -70 -57 -179q-100 -184 -100 -271q0 -12 2 -22q6 -33 32 -33q13 0 31 8q64 29 146 142l61 -33 q-79 -183 -213 -297q-108 -92 -193 -92q-21 0 -40 6q-62 18 -84 72q-13 32 -14 72q0 28 6 60q16 78 53 165.5t94 185.5q81 137 81 183q0 14 -7 20q-5 4 -11 4h-2q-46 0 -145 -98q-101 -100 -197 -265q-61 -99 -113.5 -217t-56.5 -182h-219z" />
<glyph unicode="o" horiz-adv-x="714" d="M-94 204q-1 13 -1 27q0 32 5 68q13 112 71.5 222t142 191.5t191.5 125.5q81 33 160 34q27 0 53 -4q72 -10 112 -64.5t44 -128.5v-19q0 -66 -22 -139q-24 -84 -72 -155q13 -14 39 -10.5t61.5 32t57.5 69.5l51 -45q-37 -84 -117 -118q-40 -17 -76 -17q-35 0 -65 16 q-123 -184 -284 -257q-79 -36 -146 -36q-50 0 -92 20q-102 48 -113 188zM72 389q-5 -23 -5 -42q0 -68 60 -86q20 -6 41 -6q47 0 104 29q59 29 86 72q-60 44 -78 106q-8 28 -7 56q-1 34 11 68q22 62 71.5 117.5t117.5 89.5q-11 1 -23 1q-114 0 -229 -128q-57 -61 -97 -136 t-52 -141zM381 514q6 -52 49 -80q68 78 104 178q20 55 20 97q0 33 -13 57q-42 -11 -81 -54q-40 -42 -62 -94q-18 -41 -18 -82q0 -11 1 -22z" />
<glyph unicode="p" horiz-adv-x="1024" d="M-395 -512q87 171 202.5 407.5t247.5 511.5t158 330q48 99 48 125q0 6 -3 8h256l-80 -143q83 73 178 113q73 31 132 31q18 0 34 -3q89 -15 128 -85q33 -57 33 -128q0 -17 -2 -33q-9 -92 -46 -188t-92 -168q12 -1 23 -1q28 0 52 7q33 10 62 37t52 60t52 86l31 -84 q-80 -123 -153 -169t-168 -46q-41 -47 -95.5 -81t-112 -49.5t-115.5 -19.5h-21q-46 0 -86 12q-50 16 -87 42.5t-55 71.5q-11 29 -11 63q0 17 3 36q-133 -222 -317 -743h-248zM242 346q37 41 95 54q32 8 64 8q25 0 51 -5q57 -11 106 -33t77 -48q75 64 119 156q40 84 40 153 v11q-4 73 -53 91q-22 4 -44 4q-99 0 -205 -87q-131 -106 -250 -304zM289 244q-1 -4 -1 -7q0 -30 46 -47q30 -12 67 -12q26 0 55 6q71 13 113 62q-34 29 -79.5 47.5t-87.5 22.5h-14q-34 0 -61 -15q-32 -18 -38 -57z" />
<glyph unicode="q" horiz-adv-x="894" d="M-48 248q16 87 62 181.5t117 184.5q69 86 146.5 149.5t156.5 96.5q52 22 101 22q25 0 49 -6q71 -16 118 -88l41 89h222q-22 -22 -54.5 -70.5t-55 -85.5t-71.5 -121q-18 -30 -32.5 -57t-24 -45t-23.5 -48t-20.5 -44t-25.5 -57t-29 -64q27 -23 62 -23h3q36 1 81.5 35.5 t86.5 95.5q22 33 37 58l51 -50q-36 -77 -95.5 -158t-125.5 -142t-127 -85q-25 -10 -47 -10q-31 0 -55 21q-43 -94 -111 -293q-63 -186 -63 -273v-12h-310l381 707q-63 -84 -145 -128q-54 -29 -107 -29q-27 0 -53 7q-86 24 -120 90q-24 45 -24 100q0 25 4 52zM175 363 q0 -40 23 -66q23 -27 70 -31h7q77 0 176 120q94 115 139 244q21 61 21 101q0 45 -27 62q-12 7 -29 8h-6q-75 0 -157 -67q-87 -70 -150 -171q-32 -54 -49 -104q-18 -53 -18 -96z" />
<glyph unicode="r" horiz-adv-x="577" d="M-82 401q45 61 89 164t60 197q5 28 5 50q0 55 -27 83q48 71 121 71h4q56 -2 82 -39q12 -17 13 -36q0 -13 -7 -27l336 2q-163 -220 -249 -400q-44 -92 -44 -143q0 -47 39 -57q9 -2 19 -2q46 0 101 38q67 46 126 151l41 -64q-60 -114 -156.5 -210.5t-194.5 -143.5 q-67 -32 -118 -32q-24 0 -45 7q-41 15 -63 49q-23 33 -26 85v12q0 48 22 114q26 74 79 162l201 324l-131 -4l-213 -383z" />
<glyph unicode="s" horiz-adv-x="587" d="M-98 113l168 229q-1 -7 -1 -14q0 -27 22.5 -46t51.5 -19q7 0 15 1q38 6 53 43q12 24 12 52q0 11 -2 23q-7 41 -21 68t-31.5 59.5t-21.5 49.5q-8 -13 -30.5 -53.5t-35.5 -62.5t-30 -49.5t-28 -41.5l-52 45l193 334q40 69 104 105q54 30 109 31q11 1 22 -1q66 -8 111 -61 q37 -45 37 -106q0 -57 -34 -101q-35 -46 -93 -57q0 34 -23 84t-26 63q30 -26 52 -26q16 0 27 13q14 16 14 39q0 13 -4 28q-17 49 -65 57q-6 1 -13 1q-28 0 -51 -26q-28 -32 -28 -102q0 -45 24 -103.5t51 -104.5q26 -46 42 -102q9 -31 10 -59q0 -22 -6 -41q59 22 100.5 65.5 t93.5 127.5l62 -25q-70 -144 -181.5 -254.5t-226.5 -152.5q-62 -24 -122 -24q-130 0 -248 114z" />
<glyph unicode="t" horiz-adv-x="585" d="M22 146q-2 16 -2 34q0 49 16 114q22 88 75 193l151 299h-164l52 84h151l219 457l6 12q6 12 8 17t7.5 17t7.5 19.5t4 17.5t1.5 18t-3.5 14h227l-278 -572h172l-51 -84h-156l-158 -305q-41 -79 -41 -131q0 -36 20 -60q23 -26 61 -26q25 0 57 11q98 34 175 139q13 18 25 37 l41 -64q-78 -138 -171 -231q-94 -92 -177 -128q-62 -27 -116 -27q-18 0 -36 3q-52 9 -83.5 45.5t-39.5 96.5z" />
<glyph unicode="u" horiz-adv-x="864" d="M-38 161q-2 15 -3 31q0 70 45 164l166 320q42 84 58 128t8 62l229 2q-35 -27 -120 -184t-116 -238q-24 -70 -24 -116q0 -8 1 -16q5 -48 38 -48q64 0 174 146q94 126 168 261q63 115 63 175q0 11 -2 20h266q-38 -17 -114.5 -143.5t-134.5 -263.5q-34 -84 -34 -131v-11 q4 -48 42 -53q4 -1 9 -1q40 0 96 45q63 50 120 145l41 -62q-85 -178 -199 -284.5t-204 -106.5q-55 0 -87 32q-31 32 -34 104v10q0 69 39 176q-82 -166 -158.5 -244t-159.5 -78h-3q-62 0 -110 40t-60 119z" />
<glyph unicode="v" horiz-adv-x="892" d="M53 160q-5 26 -5 57q0 51 15 113q24 98 87 198q12 20 31.5 51t31.5 50.5t28.5 47t26 45.5t21 40t16 37t8 29.5t0.5 24t-10 15.5h283q-13 -6 -23.5 -14t-23 -22.5t-21.5 -26.5t-24.5 -37.5t-26 -43t-33 -56t-37.5 -64.5q-90 -156 -108 -215q-9 -28 -8 -49q0 -59 63 -75 q7 -2 14 -3q6 -1 13 -1q41 0 87 38q53 44 89 117q-3 38 -3 73q0 144 56 226q44 63 111 104.5t149 42.5q-30 -136 -143 -338q-13 -42 -13 -76q0 -29 10 -53q19 -46 66 -46q5 1 11 1q56 6 94 78l59 -43q-42 -85 -123 -135q-48 -28 -91 -28q-22 0 -42 8q-62 22 -96 98 q-43 -90 -97 -160.5t-129 -119t-153 -48.5q-62 0 -104 44t-56 116z" />
<glyph unicode="w" horiz-adv-x="1210" d="M-9 190q4 82 50 166q69 129 157 291q76 140 88.5 168t10.5 53h240q-37 -33 -56 -67l-200 -348q-34 -59 -44 -103q-5 -20 -5 -36q0 -18 6 -30q12 -22 38 -22h5q41 0 98 46q60 48 113 138l73 119q98 146 140 242q18 43 12 61h278q-26 -13 -49.5 -37t-37 -43.5t-42.5 -66.5 l-166 -268q-32 -51 -36 -96q-1 -7 -1 -14q-1 -35 17 -56q20 -25 57 -25q26 1 51.5 11.5t43.5 23.5t39.5 36.5t33 38.5t31.5 42q-15 44 -15 95v13q2 58 26.5 120t58 112.5t79.5 83t91 32.5h1q32 0 45 -48q4 -16 4 -35q0 -41 -18 -99q-28 -85 -102 -164q-15 -38 -16 -72.5 t10 -58t31 -36t44 -10.5t51.5 22.5t51.5 58.5l55 -43q-36 -64 -81 -109q-44 -46 -88 -65q-40 -18 -78 -18q-3 1 -6 1q-40 2 -70.5 29.5t-44.5 77.5q-46 -132 -163 -223q-102 -79 -195 -79h-13q-104 6 -136 118q-10 36 -12 80q-144 -194 -292 -197q-82 0 -124 54 q-39 49 -39 122v14z" />
<glyph unicode="x" horiz-adv-x="894" d="M-104 2q72 124 162.5 225.5t211.5 208.5l-43 277l-207 -363l-47 56q58 74 109 229q32 96 32 157q0 37 -12 60l273 2l45 -293q216 172 311 291h201q-28 -28 -61 -58t-58 -51.5t-65 -54t-59 -47.5t-65.5 -51t-60.5 -47q-57 -44 -123 -103q19 -94 72 -142q48 -43 107 -44 q7 0 13 1q66 5 142 63t139 161l45 -61l-18 -35q-41 -70 -78 -124t-83.5 -108.5t-90.5 -88.5q-44 -32 -96 -50q-36 -12 -72 -13q-16 0 -33 3q-90 19 -132.5 90.5t-63.5 200.5q-115 -134 -160 -291h-235z" />
<glyph unicode="y" horiz-adv-x="845" d="M-217 -330q0 72 45 131t122 97.5t158.5 63t174.5 38.5q28 39 50.5 84.5t65.5 142.5q-94 -140 -147.5 -183.5t-122.5 -43.5q-79 0 -113 70q-23 47 -23 112q0 29 5 62q15 106 72 213l48 90t52.5 99.5t44.5 87t38 81.5t17 55l234 -2q-20 -7 -114.5 -176.5t-133.5 -265.5 q-29 -61 -29 -109q0 -53 43 -53q36 0 86.5 46.5t96.5 127.5q54 94 78.5 136.5t65.5 119t57 117t12 55.5l252 2q-13 -10 -42.5 -61t-75 -141.5t-88.5 -178.5t-106.5 -218t-105.5 -214q62 9 119 58.5t91 98t114 176.5q4 6 6.5 9.5t5.5 9t6 9.5l63 -27q-33 -60 -55.5 -98.5 t-59 -96.5t-65.5 -95.5t-68.5 -81t-75.5 -69t-79 -42.5t-86 -17q-86 -184 -208 -298.5t-243 -114.5q-75 0 -128.5 58t-53.5 136zM-43 -262q-3 -14 -3 -27q0 -20 8 -37q15 -27 48 -24q44 0 111 67t104 148q-134 -22 -194 -48t-74 -79z" />
<glyph unicode="z" horiz-adv-x="829" d="M-356 -415q-1 10 -1 21q1 48 31 108q38 72 119 143q100 89 268.5 148.5t354.5 80.5q25 32 25 59q0 21 -16 39q-24 26 -65 26q-11 0 -24 -2q-74 -11 -113 -85q-8 -17 -14 -35l-189 -25q17 103 165 370.5t231 350.5l-164 -2l-229 -407l-62 35q72 105 115 250q33 111 33 205 q0 28 -3 55q45 -5 84 -5q89 0 150 25l-39 -70h430q-68 -57 -107.5 -92.5t-95 -92.5t-91 -107t-73 -118.5t-63.5 -144.5q31 27 74 39q31 8 61 9q12 1 22 -1q40 -4 76 -24t56 -50q17 -25 16 -61v-13q-4 -44 -37 -93q121 62 310 389l43 -59l-19 -33q-83 -148 -182.5 -263.5 t-192.5 -154.5q-81 -146 -186 -282t-205 -205q-138 -96 -263 -96q-36 0 -71 8q-68 17 -109.5 60t-49.5 100zM-150 -271q-17 -29 -16 -53q0 -44 53 -73q27 -13 56 -13q7 0 15 1q37 4 80 31.5t83.5 64t81.5 85t75 94.5t64 93q-150 0 -312 -83q-135 -69 -180 -147z" />
<glyph unicode="&#x2000;" horiz-adv-x="839" />
<glyph unicode="&#x2001;" horiz-adv-x="1678" />
<glyph unicode="&#x2002;" horiz-adv-x="839" />
<glyph unicode="&#x2003;" horiz-adv-x="1678" />
<glyph unicode="&#x2004;" horiz-adv-x="559" />
<glyph unicode="&#x2005;" horiz-adv-x="419" />
<glyph unicode="&#x2006;" horiz-adv-x="279" />
<glyph unicode="&#x2007;" horiz-adv-x="279" />
<glyph unicode="&#x2008;" horiz-adv-x="209" />
<glyph unicode="&#x2009;" horiz-adv-x="335" />
<glyph unicode="&#x200a;" horiz-adv-x="93" />
<glyph unicode="&#x202f;" horiz-adv-x="335" />
<glyph unicode="&#x205f;" horiz-adv-x="419" />
<glyph unicode="&#x25fc;" horiz-adv-x="849" d="M0 0v850h850v-850h-850z" />
</font>
</defs>
</svg>
