<svg xmlns="http://www.w3.org/2000/svg" width="63.621" height="101.65"><g transform="translate(-664.973 -146.717)" fill="none" stroke="#d7cec6" stroke-linecap="round" stroke-linejoin="round" stroke-width="5"><path d="M683.271 219.008a15.984 15.984 0 01-15.8-13.68h11.238a15.983 15.983 0 0115.8 13.68zm0 26.859a15.984 15.984 0 01-15.8-13.679h11.238a15.983 15.983 0 0115.8 13.679zm31.586-29.139h11.237a15.981 15.981 0 01-15.8 13.679h-11.235a15.984 15.984 0 0115.798-13.679zm-18.073 29.139v-47.253"/><circle cx="24.699" cy="24.699" r="24.699" transform="translate(672.085 149.217)"/><circle cx="9.344" cy="9.344" r="9.344" transform="translate(687.44 158.639)"/><path d="M680.385 192.328c0-8.246 7.357-14.955 16.4-14.955s16.4 6.709 16.4 14.955"/></g></svg>