<svg xmlns="http://www.w3.org/2000/svg" width="57.995" height="58"><g fill="#090c38"><path d="M50.802 43.615c-.126 0-.253 0-.379.01l-.579-1.2h3.494a1.226 1.226 0 000-2.452h-4.681l-.687-1.424a4.041 4.041 0 002.715-3.82V31.24a1.227 1.227 0 00-1.228-1.226h-3.069v-4.445a9.62 9.62 0 00-9.609-9.608h-13.9L21.012 3.954A4.73 4.73 0 0015.595.06a4.682 4.682 0 00-3.067 1.9 4.68 4.68 0 00-.827 3.5l.133.856H8.288a1.227 1.227 0 00-1.226 1.226v3.455a1.228 1.228 0 001.226 1.226 1.227 1.227 0 001.226-1.226V8.768h2.7l2.164 13.961a17.747 17.747 0 1021.119 17.424c0-.45-.018-.91-.054-1.371h9.92l2.612 5.415a7.184 7.184 0 102.826-.584zm-2.566-8.888a1.606 1.606 0 01-1.6 1.6H35.079a17.594 17.594 0 00-1.335-3.865h14.491zm-4.3-4.714H32.309a17.963 17.963 0 00-8.238-6.444l-.8-5.157h13.515a7.164 7.164 0 017.156 7.155zm-26.187-5.156a15.3 15.3 0 11-15.3 15.3 15.314 15.314 0 0115.3-15.3zm-.066-21.982a2.24 2.24 0 01.915 1.464l2.871 18.46a17.763 17.763 0 00-3.72-.393c-.295 0-.6.009-.935.028L14.131 5.087a2.253 2.253 0 01.4-1.689 2.246 2.246 0 011.474-.913 2.247 2.247 0 011.678.39zm37.86 47.933a4.741 4.741 0 11-4.741-4.741 4.747 4.747 0 014.741 4.741z"/><path d="M11.066 33.336a1.542 1.542 0 00-2.163.282c-.011.013-.05.067-.06.081a1.543 1.543 0 102.223-.363zm-1.235 6.855v-.087a1.521 1.521 0 00-1.542-1.518 1.564 1.564 0 00-1.542 1.567v.038a1.542 1.542 0 103.085 0zm17.38-1.599a1.543 1.543 0 00-1.542 1.542v.048a1.53 1.53 0 001.542 1.528 1.555 1.555 0 001.542-1.525v-.051a1.542 1.542 0 00-1.542-1.542zm-6.007-8.887l-.068-.022a1.521 1.521 0 00-1.915.991 1.564 1.564 0 00.993 1.953 1.543 1.543 0 00.99-2.922zm4.196 3.334a1.543 1.543 0 00-1.542 1.543v.047a1.53 1.53 0 001.542 1.528 1.555 1.555 0 001.542-1.525v-.051a1.542 1.542 0 00-1.542-1.542zm-10.063-3.345l-.068-.023a1.521 1.521 0 00-1.915.992 1.563 1.563 0 00.993 1.953 1.543 1.543 0 10.99-2.922zm-3.692 16.057v-.087a1.521 1.521 0 00-1.542-1.518 1.563 1.563 0 00-1.542 1.567v.038a1.542 1.542 0 003.085 0zm4.728 3.428v-.087a1.521 1.521 0 00-1.542-1.518 1.564 1.564 0 00-1.542 1.567v.038a1.542 1.542 0 103.085 0zm5.849 0v-.087a1.521 1.521 0 00-1.542-1.518 1.564 1.564 0 00-1.542 1.567v.038a1.542 1.542 0 103.085 0zm4.72-3.428v-.087a1.521 1.521 0 00-1.542-1.518 1.564 1.564 0 00-1.542 1.567v.038a1.542 1.542 0 103.085 0z"/></g></svg>