<svg xmlns="http://www.w3.org/2000/svg" width="68.87" height="49.902"><g transform="translate(11.658)" fill="none" stroke="#090c38" stroke-miterlimit="10" stroke-width="2.5"><circle cx="24.951" cy="24.951" r="24.951" stroke="none"/><circle cx="24.951" cy="24.951" r="23.701"/></g><g transform="translate(18.966 7.308)" fill="none" stroke="#090c38" stroke-miterlimit="10" stroke-width="2.5"><circle cx="17.643" cy="17.643" r="17.643" stroke="none"/><circle cx="17.643" cy="17.643" r="16.393"/></g><path fill="none" stroke="#090c38" stroke-linecap="round" stroke-miterlimit="10" stroke-width="2.5" d="M8.454 47.057V2.93m-7.204 0v9.026a7.2 7.2 0 007.2 7.2 7.2 7.2 0 007.2-7.2V2.93m44.766 44.127V2.93m0 30.638a7.2 7.2 0 007.2-7.2V15.557"/><path d="M60.416 2.93a7.2 7.2 0 017.2 7.2v10.815" fill="none" stroke="#090c38" stroke-linecap="round" stroke-miterlimit="10" stroke-width="2.5"/><path d="M40.548 18.214a4.033 4.033 0 00-3.627 2.824 4.033 4.033 0 00-3.627-2.824c-2.208 0-4 2.173-4 4.855 0 6.778 7.623 9.007 7.623 9.007s7.623-2.516 7.623-9.007c.005-2.682-1.784-4.855-3.992-4.855z" fill="none" stroke="#090c38" stroke-linecap="round" stroke-linejoin="round" stroke-width="2.5"/></svg>