<svg xmlns="http://www.w3.org/2000/svg" width="58.767" height="56.424"><g fill="none"><path d="M12.157 17.764A8.177 8.177 0 0012.184 3.5v6.712l-3.356 1.677-3.356-1.679V3.498a8.14 8.14 0 00-.018 14.253V40.81a7.553 7.553 0 106.719 0c0-10.327-.017-12.719-.017-23.046z" stroke="#090c38" stroke-linejoin="round" stroke-width="2.5"/><path d="M11.932 45.837L8.807 44.1l-3.123 1.735v3.472l3.124 1.737 3.124-1.735z" stroke="#090c38" stroke-linecap="round" stroke-linejoin="round" stroke-width="2.5"/><g stroke-miterlimit="10"><path d="M20.652 56.425V33.54a10.86 10.86 0 0121.719 0v22.882z"/><path d="M39.871 53.925V33.543c0-4.609-3.75-8.359-8.36-8.359-4.609 0-8.359 3.75-8.359 8.359v20.382h16.72m2.5 2.5h-21.72V33.543c0-5.998 4.862-10.859 10.86-10.859 5.997 0 10.859 4.862 10.86 10.859v22.882z" fill="#090c38"/></g><path stroke="#090c38" stroke-miterlimit="10" stroke-width="2.5" d="M42.371 47.647H20.652"/><path d="M36.273 36.725a4.762 4.762 0 01-9.523 0m19.912 18.321h10.855m-5.042 0v-42.05c0-15.6-20.963-15.723-20.963 0v15.868" stroke="#090c38" stroke-linecap="round" stroke-miterlimit="10" stroke-width="2.5"/></g></svg>