<svg xmlns="http://www.w3.org/2000/svg" width="109.707" height="102.831"><path fill="#d7cec6" d="M75.606 67.55a2.224 2.224 0 00-2.228 2.22v5.618c0 7.844-12.393 18.191-18.531 22.506-6.137-4.315-18.531-14.663-18.531-22.506V52.365c6.2-.326 13.491-1.719 17.508-4.447a1.808 1.808 0 012.032 0c4 2.787 11.311 4.181 17.508 4.447v1.1a2.224 2.224 0 002.224 2.224 2.224 2.224 0 002.224-2.224v-3.276a2.223 2.223 0 00-2.21-2.224c-6.863 0-14.114-1.542-17.241-3.662a6.209 6.209 0 00-7.042 0c-3.129 2.178-10.378 3.662-17.242 3.662a2.223 2.223 0 00-2.224 2.224v25.2q0 8.162 11.119 18.533a89.99 89.99 0 0010.585 8.538 2.223 2.223 0 002.461 0 90.232 90.232 0 0010.674-8.538q11.12-10.363 11.134-18.533v-5.618a2.222 2.222 0 00-2.22-2.22"/><path fill="#d7cec6" d="M73.956 59.303L55.024 78.25 46.9 70.125a2.227 2.227 0 00-3.033 0 2.224 2.224 0 00-.111 3.143l9.7 9.7a2.224 2.224 0 003.143 0L77.073 62.45a2.224 2.224 0 000-3.143 2.224 2.224 0 00-3.113 0"/><path fill="#d7cec6" d="M87.149 27.029l-7.116-6.107V13.05h7.116zm21.779 18.636h-.044L91.597 30.841V10.828a2.224 2.224 0 00-2.224-2.224H77.809a2.224 2.224 0 00-2.224 2.224v6.256L56.313.569a2.222 2.222 0 00-2.966 0l-52.57 45.1a2.224 2.224 0 00-.245 3.135 2.217 2.217 0 001.727.778h15.8v41.629a2.223 2.223 0 002.224 2.224h4.892a2.223 2.223 0 002.224-2.224 2.224 2.224 0 00-2.224-2.224h-2.668V47.359a2.223 2.223 0 00-2.224-2.224H8.23l46.594-39.91 46.6 39.91H89.371a2.223 2.223 0 00-2.224 2.224v41.628h-2.668a2.224 2.224 0 00-2.224 2.224 2.223 2.223 0 002.224 2.224h4.892a2.223 2.223 0 002.224-2.224V49.582h15.849a2.222 2.222 0 002.26-2.185 2.223 2.223 0 00-.778-1.729"/></svg>