<svg xmlns="http://www.w3.org/2000/svg" width="87.312" height="108.568"><g fill="none" stroke="#d7cec6" stroke-linecap="round" stroke-linejoin="round" stroke-width="5"><path d="M43.754 2.5l3.889 7.879 8.7 1.263-6.289 6.133 1.485 8.66-7.785-4.088-7.777 4.089 1.485-8.66-6.292-6.133 8.7-1.263zM57.91 29.144l2.953 5.983 6.6.959-4.778 4.657 1.128 6.576-5.906-3.1-5.906 3.1 1.128-6.576-4.775-4.656 6.6-.959zm-29.037 0l2.953 5.983 6.6.959-4.772 4.659 1.128 6.576-5.906-3.1-5.906 3.1 1.128-6.576-4.778-4.657 6.6-.959zM43.826 50.03l2.953 5.983 6.6.959-4.778 4.657 1.128 6.576-5.906-3.1-5.906 3.1 1.128-6.576-4.778-4.657 6.6-.959zm19.938 55.824s-.375-4.181 4.438-8.871c6.661-6.49 16.552-11.516 16.552-32.466 0-2.564.056-22.624.056-22.624s.247-5.932-4.958-5.932c-5.931 0-5.68 6.1-5.68 6.1v16.016"/><path d="M43.754 105.854V85.985c0-3.245 1.054-6.358 7.015-10.239s11.5-13.76 13.9-17.669c3.8-6.183 12.055-1.375 8.918 4.785-2.883 5.662-13.133 22.214-13.133 22.214m-36.9 20.778s.375-4.181-4.438-8.871c-6.662-6.49-16.562-11.516-16.562-32.466 0-2.564-.056-22.624-.056-22.624s-.246-5.932 4.959-5.932c5.93 0 5.68 6.1 5.68 6.1v16.016"/><path d="M43.554 105.854V85.985c0-3.245-1.055-6.358-7.015-10.239s-11.5-13.76-13.9-17.669c-3.8-6.183-12.055-1.375-8.917 4.785 2.885 5.662 13.138 22.214 13.138 22.214"/></g></svg>