<svg xmlns="http://www.w3.org/2000/svg" width="64.742" height="49.073"><g fill="none" stroke="#090c38" stroke-linecap="round" stroke-width="2.5"><path d="M13.131 31.794l.018.018 9.275 9.275a2.314 2.314 0 003.27 0 2.319 2.319 0 000-3.271l-5.9-5.9a1.263 1.263 0 01-.371-.894A12.242 12.242 0 007.197 18.795H1.253" stroke-miterlimit="10"/><path d="M1.25 34.334h.793a9.581 9.581 0 016.813 2.821l8.587 8.588a7.062 7.062 0 005.023 2.08h18.315a2.248 2.248 0 002.249-2.247 2.248 2.248 0 00-2.06-2.241l-14.647-2.053M51.611 17.28l-.018-.017-9.276-9.275a2.314 2.314 0 00-3.27 0 2.319 2.319 0 000 3.27l5.9 5.9a1.263 1.263 0 01.371.894 12.241 12.241 0 0012.226 12.227h5.945" stroke-miterlimit="10"/><path d="M63.492 14.739h-.794a9.583 9.583 0 01-6.813-2.821l-8.587-8.589a7.061 7.061 0 00-5.023-2.079H23.96a2.248 2.248 0 00-2.249 2.247 2.248 2.248 0 002.06 2.241l14.647 2.053" stroke-miterlimit="10"/><path d="M36.451 19.097a4.22 4.22 0 00-3.8 2.955 4.221 4.221 0 00-3.8-2.955c-2.31 0-4.183 2.275-4.183 5.081 0 7.093 7.979 9.427 7.979 9.427s7.978-2.633 7.978-9.427c.009-2.803-1.864-5.081-4.174-5.081z" stroke-linejoin="round"/></g></svg>