<svg xmlns="http://www.w3.org/2000/svg" width="64.5" height="61.597"><g fill="none" stroke="#090c38" stroke-linecap="round" stroke-width="2.5"><path d="M48.487 49.407l.017-.017 8.541-8.542a2.13 2.13 0 000-3.012 2.136 2.136 0 00-3.012 0l-5.434 5.436a1.166 1.166 0 01-.824.341 11.274 11.274 0 00-11.26 11.259v5.474" stroke-miterlimit="10"/><path d="M50.827 60.348h0v-.729a8.821 8.821 0 012.6-6.273l7.909-7.908a6.5 6.5 0 001.915-4.626V23.944a2.07 2.07 0 00-2.07-2.071 2.07 2.07 0 00-2.064 1.9l-1.89 13.488M27.983 60.347v-5.474a11.274 11.274 0 00-11.26-11.259 1.165 1.165 0 01-.823-.341l-5.435-5.436a2.136 2.136 0 00-3.012 0 2.13 2.13 0 000 3.012l8.541 8.542.017.017" stroke-miterlimit="10"/><path d="M7.273 37.258L5.383 23.77a2.07 2.07 0 00-2.064-1.9 2.07 2.07 0 00-2.069 2.071v16.866a6.5 6.5 0 001.915 4.626l7.909 7.908a8.821 8.821 0 012.6 6.273v.729h0m3.732-49.174v26.046h9.049v-9.952a6.08 6.08 0 015.794-6.33 6.08 6.08 0 015.794 6.33v9.952h9.049V11.169z" stroke-miterlimit="10"/><path d="M32.249 1.251l-19.845 9.918h39.013z" stroke-linejoin="round"/></g></svg>