<svg xmlns="http://www.w3.org/2000/svg" width="101.709" height="103.439"><g fill="none" stroke-linecap="round"><g stroke-miterlimit="10"><path d="M29.178 80.505a10.738 10.738 0 10-10.739-10.742 10.75 10.75 0 0010.739 10.742z"/><path d="M29.178 75.505a5.744 5.744 0 005.739-5.738 5.745 5.745 0 00-5.739-5.738 5.745 5.745 0 00-5.739 5.738 5.745 5.745 0 005.74 5.738m0 5c-5.923 0-10.74-4.818-10.74-10.738s4.818-10.738 10.74-10.738c5.92 0 10.738 4.817 10.738 10.738 0 5.92-4.818 10.738-10.739 10.738z" fill="#d7cec6"/></g><g stroke-miterlimit="10"><path d="M72.878 80.505a10.738 10.738 0 10-10.739-10.742 10.75 10.75 0 0010.739 10.742z"/><path d="M72.878 75.505a5.744 5.744 0 005.739-5.738 5.745 5.745 0 00-5.739-5.738 5.745 5.745 0 00-5.739 5.738 5.745 5.745 0 005.74 5.738m0 5c-5.923 0-10.74-4.818-10.74-10.738s4.818-10.738 10.74-10.738c5.92 0 10.738 4.817 10.738 10.738 0 5.92-4.818 10.738-10.739 10.738z" fill="#d7cec6"/></g><path d="M58.452 100.296l2.072-6.477a1.825 1.825 0 00-.712-2.064 23.356 23.356 0 01-2.533-2 23.768 23.768 0 01-4.831-6.1 1.825 1.825 0 00-3.19 0 23.671 23.671 0 01-4.832 6.1 23.283 23.283 0 01-2.531 2 1.823 1.823 0 00-.711 2.063l2.073 6.477" stroke="#d7cec6" stroke-miterlimit="10" stroke-width="5"/><path d="M90.088 99.184l-1.668-5.212q.748-.567 1.458-1.188a26.489 26.489 0 009.33-20.453 64.116 64.116 0 00-2.123-15.752c-.59-2.822-2.411-4.5-4.883-4.5a4.734 4.734 0 00-4.933 4.885 20.219 20.219 0 00.37 3.3 47.5 47.5 0 01.672 11.912c-.559 6.514-6.281 13.438-15.782 13.438-8.906 0-14.992-8.007-15.794-13.542-.46-3.173-.839-8.327-.881-8.918a5 5 0 00-10 0c-.043.59-.421 5.744-.88 8.918-.8 5.534-6.887 13.542-15.795 13.542-9.5 0-15.221-6.923-15.781-13.438a48.22 48.22 0 01.694-12.009 16.284 16.284 0 00.343-3.29 5.016 5.016 0 00-4.929-4.8c-2.45 0-4.231 1.651-4.881 4.5a77.4 77.4 0 00-2.126 15.758 28.329 28.329 0 009.334 20.452q.709.619 1.458 1.187l-1.669 5.213" stroke="#d7cec6" stroke-miterlimit="10" stroke-width="5"/><g stroke-linejoin="round"><path d="M50.856 53.634c7.678 0 25.234-13.464 28.272-29.74.886-4.752.557-12.191-3.287-17.526A15.161 15.161 0 0065.173.143c-5.821-.8-10.779 1.848-14.331 7.605-3.62-5.839-8.47-8.409-14.31-7.605a15.163 15.163 0 00-10.666 6.224c-3.846 5.334-4.174 12.775-3.288 17.527 3.042 16.275 20.6 29.74 28.278 29.74z"/><path d="M50.856 48.634c.274 0 1.793-.084 4.83-1.745 2.512-1.374 5.146-3.33 7.616-5.66 2.716-2.56 5.12-5.481 6.952-8.449 2.025-3.277 3.357-6.576 3.959-9.802.393-2.107.428-4.625.097-6.911-.388-2.678-1.26-5.02-2.525-6.775-1.717-2.383-4.104-3.755-7.293-4.195a9.737 9.737 0 00-1.321-.094 7.646 7.646 0 00-4.186 1.2c-1.423.893-2.73 2.297-3.886 4.17a5 5 0 01-4.25 2.376h-.006a5 5 0 01-4.25-2.365c-1.182-1.908-2.493-3.324-3.896-4.21C41.445 5.384 40.099 5 38.58 5c-.439 0-.898.032-1.363.096-3.19.441-5.577 1.814-7.294 4.196-1.265 1.754-2.138 4.096-2.526 6.774-.33 2.286-.295 4.805.097 6.91.603 3.228 1.935 6.526 3.96 9.804 1.833 2.967 4.237 5.889 6.953 8.449 2.47 2.329 5.105 4.286 7.617 5.66 3.037 1.661 4.557 1.745 4.83 1.745m0 5c-7.677 0-25.235-13.465-28.275-29.74-.886-4.751-.558-12.192 3.288-17.526C28.392 2.867 31.98.773 36.534.143A15.014 15.014 0 0138.58 0c4.932 0 9.074 2.607 12.262 7.749C53.98 2.663 58.213.003 63.171.003c.655 0 1.323.047 2.003.14 4.554.63 8.143 2.724 10.668 6.226 3.843 5.335 4.173 12.774 3.286 17.526-3.038 16.275-20.594 29.74-28.272 29.74z" fill="#d7cec6"/></g></g></svg>