<svg xmlns="http://www.w3.org/2000/svg" width="90.225" height="101.789"><g fill="none" stroke="#d7cec6" stroke-linecap="round" stroke-linejoin="round" stroke-width="5"><path d="M64.224 35.377a9.375 9.375 0 10-9.375-9.375 9.375 9.375 0 009.375 9.375z"/><path d="M44.528 13.281a1.56 1.56 0 00-1.523.962l-2.1 5.069a1.564 1.564 0 00.4 1.758l3.838 3.465v2.934l-3.838 3.465a1.563 1.563 0 00-.4 1.757l2.1 5.07a1.563 1.563 0 001.523.962l5.164-.264 2.074 2.075-.264 5.163a1.564 1.564 0 00.963 1.524l5.069 2.1a1.561 1.561 0 001.758-.4l3.465-3.838h2.933l3.465 3.838a1.561 1.561 0 001.758.4l5.069-2.1a1.564 1.564 0 00.963-1.524l-.264-5.163 2.074-2.077 5.164.264a1.558 1.558 0 001.523-.962l2.1-5.07a1.563 1.563 0 00-.4-1.757l-3.838-3.465v-2.934l3.838-3.465a1.564 1.564 0 00.4-1.758l-2.1-5.068a1.561 1.561 0 00-1.523-.962l-5.164.262-2.074-2.073.264-5.164a1.564 1.564 0 00-.963-1.524l-5.069-2.1a1.563 1.563 0 00-1.758.4L65.69 6.919h-2.933l-3.465-3.838a1.563 1.563 0 00-1.758-.4l-5.068 2.1a1.562 1.562 0 00-.963 1.523l.264 5.164-2.075 2.074z"/><path d="M71.418 57.957v41.331H2.5V16.627h31.486"/><path d="M15.994 57.958h15.193v15.193H15.994zm26.51 0h15.193v15.193H42.504zM16.255 45.785h15.482M15.994 85.324h41.703M16.255 27.95h6.062m-6.062 8.622h15.482"/></g></svg>