<svg xmlns="http://www.w3.org/2000/svg" width="78.386" height="103.254"><path fill="#d7cec6" d="M3.166 3.165h22.318v96.923H3.166zm47.187 7.706v89.217H28.034V10.871zm24.868 89.217H52.902v-80.57H75.22zm2.551 2.551V16.967h-24.87V9.599a1.275 1.275 0 00-1.276-1.274H28.034V1.893A1.275 1.275 0 0026.76.617H1.891A1.275 1.275 0 00.615 1.893v99.474a1.275 1.275 0 001.276 1.276h74.605"/><path fill="#d7cec6" d="M3.781 99.474h21.088V3.784H3.781zm22.318 1.23H2.551V2.55h23.548zm2.551-1.23h21.092v-87.99H28.65zm22.318 1.23H27.419V10.257h23.549zm2.55-1.23h21.087V20.135H53.517zm22.319 1.23H52.289v-81.8h23.548zm.659 2.55H1.891A1.893 1.893 0 010 101.365V1.89A1.892 1.892 0 011.891.001h24.867A1.893 1.893 0 0128.65 1.89v5.817h22.977a1.892 1.892 0 011.891 1.889v6.758h24.869v86.286h-1.23V17.584h-24.87V9.596a.661.661 0 00-.661-.659H27.42V1.89a.661.661 0 00-.662-.659H1.891a.66.66 0 00-.661.659v99.475a.66.66 0 00.661.659h74.605z"/><path fill="#d7cec6" d="M14.325 91.762a4.238 4.238 0 114.239-4.239 4.242 4.242 0 01-4.239 4.239m0-11.027a6.789 6.789 0 106.789 6.789 6.8 6.8 0 00-6.789-6.789"/><path fill="#d7cec6" d="M14.325 83.902a3.624 3.624 0 103.622 3.624 3.627 3.627 0 00-3.622-3.624m0 8.478a4.854 4.854 0 114.852-4.854 4.859 4.859 0 01-4.852 4.854m0-11.027a6.173 6.173 0 106.174 6.173 6.181 6.181 0 00-6.174-6.173m0 13.578a7.4 7.4 0 117.4-7.4 7.413 7.413 0 01-7.4 7.4m24.869-11.648a4.238 4.238 0 11-4.237 4.239 4.245 4.245 0 014.237-4.239m0 11.027a6.789 6.789 0 10-6.79-6.789 6.8 6.8 0 006.79 6.789"/><path fill="#d7cec6" d="M39.194 83.902a3.624 3.624 0 103.622 3.624 3.627 3.627 0 00-3.622-3.624m0 8.478a4.854 4.854 0 114.852-4.854 4.859 4.859 0 01-4.852 4.854m0-11.027a6.173 6.173 0 106.174 6.173 6.18 6.18 0 00-6.174-6.173m0 13.578a7.4 7.4 0 117.4-7.4 7.412 7.412 0 01-7.4 7.4m24.868-11.648a4.238 4.238 0 11-4.237 4.239 4.244 4.244 0 014.237-4.239m0 11.027a6.789 6.789 0 10-6.789-6.789 6.8 6.8 0 006.789 6.789"/><path fill="#d7cec6" d="M64.063 83.902a3.624 3.624 0 103.622 3.624 3.627 3.627 0 00-3.622-3.624m0 8.478a4.854 4.854 0 114.852-4.854 4.859 4.859 0 01-4.852 4.854m0-11.027a6.173 6.173 0 106.172 6.173 6.181 6.181 0 00-6.172-6.173m0 13.578a7.4 7.4 0 117.4-7.4 7.413 7.413 0 01-7.4 7.4M8.883 75.089h10.882a1.276 1.276 0 000-2.551H8.883a1.276 1.276 0 000 2.551"/><path fill="#d7cec6" d="M8.883 73.154a.66.66 0 100 1.32h10.885a.66.66 0 000-1.32zm10.886 2.55H8.883a1.89 1.89 0 110-3.78h10.885a1.89 1.89 0 010 3.78m38.852-.615h10.884a1.276 1.276 0 000-2.551H58.62a1.276 1.276 0 000 2.551"/><path fill="#d7cec6" d="M58.619 73.154a.66.66 0 100 1.32h10.885a.66.66 0 000-1.32zm10.886 2.55H58.619a1.89 1.89 0 110-3.78h10.885a1.89 1.89 0 010 3.78M58.62 67.737h10.884a1.276 1.276 0 000-2.551H58.62a1.276 1.276 0 000 2.551"/><path fill="#d7cec6" d="M58.619 65.801a.66.66 0 100 1.32h10.885a.66.66 0 000-1.32zm10.886 2.55H58.619a1.89 1.89 0 110-3.78h10.885a1.89 1.89 0 010 3.78"/></svg>