<svg xmlns="http://www.w3.org/2000/svg" width="104.549" height="104.608"><path d="M56.209 78.278l-9.472 4.028-24.275-24.393 3.917-9.465zm-12.894 5.35l-10.561 4.4-16.252-16.135 4.4-10.561zm-14.1 5.956l-10.56 4.4-7.985-7.983 4.4-10.561zm-13.857 5.718L4.979 99.677l4.374-10.379zm45.139-17.709L26.941 44.281a1.751 1.751 0 00-1.243-.528 1.754 1.754 0 00-1.245.528 1.218 1.218 0 00-.243.364l-.079.077-24 57.5a1.756 1.756 0 00.918 2.3l.215.047a1.584 1.584 0 00.36.046 1.109 1.109 0 00.346-.054h.492l57.48-24.112a1.653 1.653 0 00.939-.978 1.852 1.852 0 00.007-1.249 1.2 1.2 0 00-.395-.628M35.76 44.761l-.394.394 2.49 2.489.393-.394a21.644 21.644 0 005.863-10.845 22.316 22.316 0 00-.375-11.47l-.162-.542-3.368 1.065.156.523a19.416 19.416 0 01.353 9.7 18.255 18.255 0 01-4.955 9.08m6.214-38.348l1.031 3.2 3.195 1.03-2.273 2.377.821 3.288-3.288-.821-2.377 2.273-1.029-3.195-3.2-1.031 2.274-2.377-.822-3.288 3.289.821zm-6.634 10.86l1.995 6.784 5.179-4.915 6.911 1.727-1.6-6.8 4.918-5.183-6.788-2-2.119-6.893-5.172 4.906-6.926-1.732 1.731 6.927-4.915 5.179zm32.91 43.387a22.5 22.5 0 00-10.841 5.856l-.41.393 2.507 2.507.392-.411a17.376 17.376 0 019.079-5.069 19.226 19.226 0 019.686.353l.521.159 1.082-3.247-.55-.164a22.326 22.326 0 00-11.466-.376m22.74 9.111l-1.025-3.176-3.195-1.03 2.273-2.376-.822-3.288 3.288.821 2.377-2.272 1.03 3.195 3.2 1.031-2.275 2.378.815 3.164-3.288-.822zm13.558-9.1l-6.8-1.864-1.989-6.764-5.179 4.781-6.93-1.733 1.732 6.926-4.915 5.179 6.782 1.995 1.993 6.783 5.179-4.914 6.927 1.732-1.732-6.927zM73.828 26.717l1.03 3.2 3.2 1.03-2.276 2.378.817 3.164-3.282-.82-2.376 2.273-1.03-3.195-3.195-1.03 2.275-2.379-.816-3.164 3.282.821zm-6.757 10.739l1.995 6.781 5.179-4.912 6.927 1.73-1.732-6.925 4.91-5.176-6.656-2-2-6.782-5.182 4.913-7.044-1.727 1.73 6.92-4.915 5.179zM46.795 55.415l13.94-13.939 2.42 2.42-13.94 13.939z" fill="#d7cec6"/></svg>