<svg xmlns="http://www.w3.org/2000/svg" width="90.451" height="110.251"><path fill="#d7cec6" d="M84.73 62.973L66.1 86.23a4.1 4.1 0 01-2.612 1.482l-35.607 4.509-.08.01-7.279 10.213L6.91 88.832l17.931-20.881a4.045 4.045 0 012.279-1.244l24.449-6.17a2.757 2.757 0 013.223 1.779 2.677 2.677 0 01-1.556 3.331l-17.334 7.1 9.2 10.165.074.082 19.69-4.774.059-.015L78.612 61.78l.043-.05v-.12l1.739-2.087a2.817 2.817 0 014-.342l.118.119a2.861 2.861 0 01.224 3.671M22.513 41.756c1.4-7.479 6.642-12.311 13.35-12.311 3.907 0 8.262 1.669 12.589 4.828l1.534 1.151 1.534-1.151c4.212-3.158 8.524-4.828 12.471-4.828 6.706 0 11.822 4.673 13.348 12.193a25.4 25.4 0 01-3.17 17.183l-12.3 14.79-15.144 3.637-2.248-2.571 10.561-4.295a7.84 7.84 0 004.507-9.573v-.091l-.011-.06a7.885 7.885 0 00-9.357-5.1l-23.019 5.784c-4.187-6.212-5.836-13.159-4.647-19.577m64.974 13.591a8.113 8.113 0 00-5.683-1.847 28.241 28.241 0 00.526-12.762c-1.92-9.968-9.119-16.409-18.338-16.409-4.452 0-9.163 1.585-14 4.711-4.781-3.2-9.534-4.83-14.126-4.83-9.229 0-16.429 6.488-18.341 16.528-1.421 7.341.285 15.339 4.8 22.541a7.116 7.116 0 00-1.32 1.232L.114 88.97l-.11.129 21.008 21.01.154.151 9.574-13.284 33.387-4.144a8.859 8.859 0 006.06-3.391l18.637-23.149a7.831 7.831 0 00-1.337-10.936M47.422 0h5.116v14.611h-5.116zm21.809 16.792l10.31-14.235 4.142 3-10.31 14.235zM16.176 5.612l4.143-3 10.31 14.235-4.143 3z"/></svg>