<svg xmlns="http://www.w3.org/2000/svg" width="102.816" height="102.701"><path fill="#d7cec6" d="M90.62 50.039H11.285v-3.647H90.62zm2.051 48.9A2 2 0 0190.733 97a2 2 0 011.938-1.938A1.92 1.92 0 0194.609 97a1.922 1.922 0 01-1.938 1.939M11.286 54.028h79.335v23.481H11.285zM9.348 98.939A2 2 0 017.41 97a1.921 1.921 0 011.938-1.938A1.921 1.921 0 0111.286 97a1.922 1.922 0 01-1.938 1.939m19.263-56.766c-2.165-1.481-4.56-6.383-5.015-10.145H39.44c-.456 3.42-2.393 8.435-5.015 10.145 0 .115-.113.228-.113.342h-5.357l-.342-.342m25.305-19.719l-.228-1.255a17.863 17.863 0 00-1.71-6.268l4.788 5.813-1.254 8.093c-1.025-1.6-1.254-3.192-1.6-6.383m4.788 11.4l2.051-13.336 1.482-9.917h10.258L75.8 37.387l.683 4.1c0 .113-.342.341-.683.341H58.245a.972.972 0 01-.683-.341zm20.289-2.85l-2.508-20.4h6.953c1.027 9.688-1.026 14.248-4.445 20.4m21.885 11.513H80.245a6.537 6.537 0 00.113-1.482l-.57-3.533 1.368-2.394c4.332-7.523 7.524-12.994 6.155-25.419a3.114 3.114 0 00-3.078-2.963H69.755V1.939A1.921 1.921 0 0067.817.001a1.921 1.921 0 00-1.938 1.938v4.673h-5.357a1.88 1.88 0 00-1.938 1.71l-1.025 7.181-6.612-8.206a1.836 1.836 0 00-1.481-.684h-4.56a2.009 2.009 0 00-1.824 1.255 2.1 2.1 0 00.57 2.165 13.454 13.454 0 012.85 3.078c2.165 3.42 2.85 4.673 3.305 8.548l.114 1.255c.57 4.788.912 7.3 4.788 10.943l-1.025 7.067a3.281 3.281 0 00.113 1.481H39.663a22.5 22.5 0 003.875-12.651A1.978 1.978 0 0041.6 27.93H21.655a1.9 1.9 0 00-1.938 1.824c-.228 3.419 1.368 8.891 3.99 12.651H1.935a1.921 1.921 0 00-1.938 1.938 2 2 0 001.938 1.939h5.472v45.137a5.8 5.8 0 00-3.875 5.472 5.837 5.837 0 005.813 5.813 5.838 5.838 0 005.813-5.813 5.8 5.8 0 00-3.875-5.472V81.272h79.335v10.144a5.8 5.8 0 00-3.876 5.472 5.838 5.838 0 005.814 5.813 5.838 5.838 0 005.813-5.813 5.8 5.8 0 00-3.875-5.472V46.392h6.383a1.921 1.921 0 001.938-1.938 1.921 1.921 0 00-1.938-1.938"/></svg>