<svg xmlns="http://www.w3.org/2000/svg" width="64.5" height="61.597" viewBox="0 0 64.5 61.597"><g transform="translate(415.194 -289.719)"><path d="M-331.513,375.016l.017-.017,8.541-8.542a2.13,2.13,0,0,0,0-3.012,2.136,2.136,0,0,0-3.012,0l-5.434,5.436a1.166,1.166,0,0,1-.824.341,11.274,11.274,0,0,0-11.26,11.259v5.474" transform="translate(-35.194 -35.89)" fill="none" stroke="#090c38" stroke-linecap="round" stroke-miterlimit="10" stroke-width="2.5"/><path d="M-314.892,370.646h0v-.729a8.821,8.821,0,0,1,2.6-6.273l7.909-7.908a6.5,6.5,0,0,0,1.915-4.626V334.242a2.07,2.07,0,0,0-2.07-2.071,2.07,2.07,0,0,0-2.064,1.9l-1.89,13.488" transform="translate(-49.475 -20.579)" fill="none" stroke="#090c38" stroke-linecap="round" stroke-miterlimit="10" stroke-width="2.5"/><path d="M-381.643,385.956v-5.474a11.274,11.274,0,0,0-11.26-11.259,1.165,1.165,0,0,1-.823-.341l-5.435-5.436a2.136,2.136,0,0,0-3.012,0,2.13,2.13,0,0,0,0,3.012l8.541,8.542.017.017" transform="translate(-5.568 -35.89)" fill="none" stroke="#090c38" stroke-linecap="round" stroke-miterlimit="10" stroke-width="2.5"/><path d="M-407.921,347.556l-1.89-13.488a2.07,2.07,0,0,0-2.064-1.9,2.07,2.07,0,0,0-2.069,2.071v16.866a6.5,6.5,0,0,0,1.915,4.626l7.909,7.908a8.821,8.821,0,0,1,2.6,6.273v.729h0" transform="translate(0 -20.579)" fill="none" stroke="#090c38" stroke-linecap="round" stroke-miterlimit="10" stroke-width="2.5"/><path d="M-381.665,310.786v26.046h9.049v-9.952a6.08,6.08,0,0,1,5.794-6.33,6.08,6.08,0,0,1,5.794,6.33v9.952h9.049V310.786Z" transform="translate(-16.123 -9.898)" fill="none" stroke="#090c38" stroke-linecap="round" stroke-miterlimit="10" stroke-width="2.5"/><path d="M-371.813,290.97l-19.845,9.918h39.013Z" transform="translate(-11.132)" fill="none" stroke="#090c38" stroke-linecap="round" stroke-linejoin="round" stroke-width="2.5"/></g></svg>