<svg xmlns="http://www.w3.org/2000/svg" width="101.984" height="84.172" viewBox="0 0 101.984 84.172"><defs/><path fill="#d7cec6" d="M81.017 48.855h12.926v2.849H81.322zm-7.329 21.272l-1.323-18.524-4.072.3 1.426 19.339a82.091 82.091 0 01-18.83 2.036 85.172 85.172 0 01-18.219-1.933l1.425-19.441-4.07-.3-1.323 18.728a41.31 41.31 0 01-6.005-2.239l4.581-39.8h47.226l4.579 39.8a42.081 42.081 0 01-5.394 2.036M8.142 51.706v-2.849h12.722l-.306 2.849zm30.229-29.211a12.465 12.465 0 0110.382-12.316l2.137-.3 2.137.3a12.465 12.465 0 0110.377 12.315v1.73H38.366zM50.89 4.073A1.565 1.565 0 0152.417 5.6a1.451 1.451 0 01-.509 1.119L50.89 7.737l-1.018-1.018a1.451 1.451 0 01-.509-1.119 1.565 1.565 0 011.527-1.527M95.165 33.08a3.538 3.538 0 01-2.341-1.221 3.352 3.352 0 01-.813-2.545l1.526-15.776a3.533 3.533 0 011.222-2.341 3.349 3.349 0 012.544-.814h.1l-2.036 20.559-.2 2.239zM4.58 10.18a3.819 3.819 0 012.545.815 3.151 3.151 0 011.221 2.341l1.527 15.776a3.346 3.346 0 01-.815 2.544 3.147 3.147 0 01-2.34 1.222h-.1l-2.137-22.6zm93.333 45.6v-8.55l1.628-15.979 2.444-24.63-4.174-.408a7.545 7.545 0 00-5.6 1.73 7.938 7.938 0 00-2.748 5.089l-1.527 15.776a7.54 7.54 0 001.73 5.6 7.937 7.937 0 005.089 2.748h.1l-.712 7.634H80.504l-2.341-20.56H67.476V22.5A16.726 16.726 0 0056.382 6.826a4.938 4.938 0 00.1-1.221 5.648 5.648 0 00-5.6-5.6 5.648 5.648 0 00-5.6 5.6 4.94 4.94 0 00.1 1.221 16.394 16.394 0 00-11.078 15.668v1.73H23.617l-2.341 20.56H7.841l-.712-7.634h.1a7.475 7.475 0 005.088-2.748 7.845 7.845 0 001.73-5.6l-1.526-15.776a7.483 7.483 0 00-2.749-5.089 7.415 7.415 0 00-5.6-1.73l-4.173.408 3.053 30.941 1.018 9.669v8.55l-2.748 27.99 4.072.407 2.748-28.4h11.807L18.32 70.327l1.12.712c.306.2 5.088 2.951 14.147 4.784v8.245h4.072v-7.524a85.317 85.317 0 0013.231.916 101.968 101.968 0 0013.435-.916v7.532h4.072v-8.245q2.9-.611 5.191-1.221h.408v-.1c5.292-1.527 8.142-3.155 8.345-3.359l1.12-.712-1.629-14.554h12.01l2.85 28.294 4.072-.407z"/><path fill="#d7cec6" d="M30.228 32.162h40.915v4.072H30.228z"/></svg>