<svg xmlns="http://www.w3.org/2000/svg" width="115.677" height="111.898" viewBox="0 0 115.677 111.898"><defs/><path fill="#d7cec6" d="M31.16 111.898v-26.8a26.225 26.225 0 004.468.393 17.623 17.623 0 0010.864-3.279c4.508-3.4 6.795-9.177 6.795-17.179a1.892 1.892 0 00-1.408-1.828c-.472-.125-11.588-3-18.8 2.553a12.925 12.925 0 00-1.919 1.831v-8.923a10.959 10.959 0 007.734-6.463 13.331 13.331 0 003.024.719 9.971 9.971 0 008.39-2.7c2.8-2.8 3.526-7.184 1.923-11.515 4.085-1.91 6.6-5.467 6.6-9.376s-2.53-7.483-6.637-9.389a13.352 13.352 0 00.718-3.024 9.964 9.964 0 00-2.7-8.389c-2.8-2.806-7.184-3.527-11.515-1.923C36.786 2.518 33.228 0 29.324 0c-3.925 0-7.49 2.537-9.4 6.653-4.292-1.548-8.629-.812-11.411 1.964a9.985 9.985 0 00-2.695 8.39 13.292 13.292 0 00.759 3.132c-4.079 1.912-6.592 5.468-6.592 9.369 0 3.922 2.537 7.487 6.652 9.4-1.547 4.291-.811 8.631 1.965 11.407 2.742 2.743 7.216 3.518 11.514 1.919a10.982 10.982 0 007.253 6.355v20.25a13.008 13.008 0 00-1.919-1.83c-7.173-5.526-18.329-2.68-18.8-2.555a1.891 1.891 0 00-1.407 1.829c0 8 2.283 13.783 6.79 17.178a17.637 17.637 0 0010.866 3.279 26.151 26.151 0 004.468-.393v15.548m3.793-30.656v-1.81c0-4.919 1.421-8.511 4.22-10.674 4.353-3.359 11.04-2.719 14.094-2.19-.254 5.932-2.016 10.175-5.243 12.612-4.5 3.4-10.761 2.539-13.071 2.062m-14.023-51.76a17.3 17.3 0 00-6.886 3.8 15.735 15.735 0 00-1.865 2.263c-2.853-1.268-4.609-3.555-4.609-6.036s1.747-4.754 4.585-6.024a15.877 15.877 0 001.8 2.161 18.041 18.041 0 006.975 3.834m-4.213 6.475c1.367-1.366 4.067-2.625 7.45-3.48a9.3 9.3 0 001.059 2.168L10.142 45.939c-1.276-2.937-.167-7.027 2.786-9.982m8.58-11.862a9.471 9.471 0 00-1.162 2.375c-3.413-.858-6.136-2.124-7.5-3.493a10.96 10.96 0 01-3.252-6.4 6.867 6.867 0 01.58-3.826zm4.139 24.581A18.089 18.089 0 0029.48 41.7a17.271 17.271 0 003.8 6.887 15.822 15.822 0 002.26 1.871c-1.268 2.851-3.554 4.606-6.032 4.606s-4.754-1.747-6.024-4.584a15.933 15.933 0 002.162-1.8m7.547-38.506a18 18 0 00-3.832 6.974 18 18 0 00-3.805-6.886 15.639 15.639 0 00-2.26-1.865c1.268-2.852 3.554-4.61 6.036-4.61s4.756 1.749 6.024 4.588a15.567 15.567 0 00-2.163 1.8m-3.774 25.026a5.772 5.772 0 115.772-5.773 5.78 5.78 0 01-5.772 5.773m5.223 2.213l11.291 11.292a7 7 0 01-3.581.465 10.958 10.958 0 01-6.4-3.251c-1.364-1.361-2.623-4.062-3.481-7.447a9.456 9.456 0 002.169-1.058m-2.268-17.059c.859-3.414 2.121-6.135 3.492-7.507 3.066-3.064 7.262-4.131 10.222-2.669L34.745 21.517a9.439 9.439 0 00-2.373-1.161m-8.177 1.089L12.903 10.139c2.94-1.275 7.029-.163 9.982 2.788 1.36 1.361 2.62 4.06 3.48 7.45a9.64 9.64 0 00-2.167 1.057m2.271 17.06c-.861 3.415-2.125 6.136-3.5 7.507-3.065 3.064-7.265 4.125-10.22 2.671l11.339-11.339a9.45 9.45 0 002.376 1.161m15.23-9.135a17.248 17.248 0 006.886-3.8 16.02 16.02 0 001.872-2.259c2.85 1.268 4.606 3.552 4.606 6.033s-1.749 4.757-4.591 6.026a15.511 15.511 0 00-1.8-2.164 18.038 18.038 0 00-6.975-3.834m7.468-12.872a10.959 10.959 0 01-3.254 6.4c-1.362 1.363-4.062 2.623-7.448 3.481a9.328 9.328 0 00-1.056-2.167l11.29-11.29a6.985 6.985 0 01.467 3.58m-10.67 15.886c3.416.857 6.136 2.12 7.508 3.492 3.063 3.067 4.13 7.263 2.67 10.221L37.326 34.754a9.475 9.475 0 001.162-2.375M27.379 90.691V92.5c-2.311.48-8.566 1.342-13.071-2.06-3.227-2.439-4.99-6.683-5.243-12.617 3.042-.535 9.712-1.184 14.085 2.188 2.806 2.159 4.229 5.753 4.229 10.68M89.337 55.236a46.277 46.277 0 006.245 3.292c4.824 4.875 7.3 9.213 8.077 11.263-1.5-.576-5.112-2.444-11.046-8.346a46.638 46.638 0 00-3.276-6.209m9.632-25.891a6.082 6.082 0 012.927 3.651 8.84 8.84 0 01-.757 6.67 14.328 14.328 0 01-3.951 4.345 1.889 1.889 0 001.753 3.285 16.158 16.158 0 015-.907c4.314.006 7.96 2.389 7.961 5.2a4.029 4.029 0 01-1.29 2.789 9.533 9.533 0 01-6.658 2.387c-5.759-.008-13.257-5.092-15.036-6.358-.546-2.227-2.579-11.583.288-17.013 2.094-3.963 6.476-5.778 9.767-4.051M76.081 41.814a2.612 2.612 0 011.862-.767 2.647 2.647 0 011.874.773c.332.334 1.112 1.118-.752 2.983a4.074 4.074 0 01-1.85 1.184 1.146 1.146 0 01-1.129-.434 2.648 2.648 0 010-3.739m5.324 23.027a1.89 1.89 0 00-3.285-1.755 14.394 14.394 0 01-4.343 3.954 8.856 8.856 0 01-6.665.756 6.087 6.087 0 01-3.652-2.927c-1.73-3.3.087-7.678 4.051-9.773 5.428-2.865 14.781-.831 17.007-.286 1.266 1.778 6.347 9.269 6.355 15.041a9.542 9.542 0 01-2.389 6.663 4.023 4.023 0 01-2.785 1.289c-2.813 0-5.195-3.65-5.2-7.963a16.21 16.21 0 01.907-5m-.5-14.58a3.051 3.051 0 01.993-2.23 1.789 1.789 0 00.2-.2 3.074 3.074 0 012.267-1.024c.269 1.856.6 3.373.818 4.275-.9-.216-2.412-.547-4.28-.818m-20.944-4.466a5.892 5.892 0 004.19 1.741 5.886 5.886 0 004.188-1.733 1.891 1.891 0 10-2.675-2.674 2.2 2.2 0 01-3.033 0 2.14 2.14 0 01-.631-1.522 2.117 2.117 0 01.626-1.516c1.252-1.258 4.358-1.351 9.009 2.472a6.39 6.39 0 001.77 5.666 4.987 4.987 0 003.561 1.564h.111v.089c-4.679-.263-8.491.372-11.337 1.878-5.8 3.064-8.329 9.735-5.631 14.87a9.807 9.807 0 005.879 4.781 12.619 12.619 0 009.548-1.023 12.484 12.484 0 001.176-.71v.169c.008 6.47 4.035 11.738 8.983 11.74a7.644 7.644 0 005.457-2.4 13.173 13.173 0 003.5-9.339 13.857 13.857 0 00-.09-1.512 39.183 39.183 0 005.3 3.795c3.365 1.946 5.584 2.214 6.875.915l.225-.224c2.523-2.522-2.236-9.277-4.673-12.38a14.08 14.08 0 001.679.1 13.163 13.163 0 009.311-3.493 7.648 7.648 0 002.4-5.465c0-4.943-5.267-8.971-11.766-8.981l-.145.009a12.429 12.429 0 00.716-1.187 12.639 12.639 0 001.023-9.552 9.817 9.817 0 00-4.777-5.879c-5.136-2.7-11.806-.172-14.87 5.632a20.732 20.732 0 00-1.924 10.15 5.049 5.049 0 00-1.448-2.63 6.433 6.433 0 00-5.935-1.706c-3.727-4.59-3.624-7.657-2.381-8.9a2.2 2.2 0 013.036 0 2.152 2.152 0 010 3.04 1.891 1.891 0 000 2.672 1.937 1.937 0 002.675 0 5.934 5.934 0 00-4.2-10.122 5.874 5.874 0 00-4.186 1.734c-.8.8-4.359 5.055 1.193 12.736-7.681-5.551-11.933-2-12.734-1.191a5.932 5.932 0 000 8.381"/></svg>