<svg xmlns="http://www.w3.org/2000/svg" width="101.709" height="103.439" viewBox="0 0 101.709 103.439"><g transform="translate(-216.512 -109.759)"><g transform="translate(0.6 2.222)" fill="none" stroke-linecap="round" stroke-miterlimit="10"><path d="M245.09,188.042A10.738,10.738,0,1,0,234.351,177.3,10.75,10.75,0,0,0,245.09,188.042Z" stroke="none"/><path d="M 245.0902862548828 183.04150390625 C 248.2543640136719 183.04150390625 250.8285217285156 180.4677886962891 250.8285217285156 177.3042602539063 C 250.8285217285156 174.1401672363281 248.2543640136719 171.5660095214844 245.0902862548828 171.5660095214844 C 241.9256439208984 171.5660095214844 239.3510131835938 174.1401672363281 239.3510131835938 177.3042602539063 C 239.3510131835938 180.4677886962891 241.9256439208984 183.04150390625 245.0902862548828 183.04150390625 M 245.0902862548828 188.04150390625 C 239.1683807373047 188.04150390625 234.3510131835938 183.2241363525391 234.3510131835938 177.3042602539063 C 234.3510131835938 171.3833465576172 239.1694183349609 166.5660095214844 245.0902862548828 166.5660095214844 C 251.0101165771484 166.5660095214844 255.8285217285156 171.3833465576172 255.8285217285156 177.3042602539063 C 255.8285217285156 183.2241363525391 251.0111999511719 188.04150390625 245.0902862548828 188.04150390625 Z" stroke="none" fill="#d7cec6"/></g><g transform="translate(2.245 2.222)" fill="none" stroke-linecap="round" stroke-miterlimit="10"><path d="M287.145,188.042A10.738,10.738,0,1,0,276.406,177.3,10.75,10.75,0,0,0,287.145,188.042Z" stroke="none"/><path d="M 287.1452941894531 183.04150390625 C 290.3094177246094 183.04150390625 292.8836059570313 180.4677886962891 292.8836059570313 177.3042602539063 C 292.8836059570313 174.1401672363281 290.3094177246094 171.5660095214844 287.1452941894531 171.5660095214844 C 283.9806213378906 171.5660095214844 281.4059753417969 174.1401672363281 281.4059753417969 177.3042602539063 C 281.4059753417969 180.4677886962891 283.9806213378906 183.04150390625 287.1452941894531 183.04150390625 M 287.1452941894531 188.04150390625 C 281.2232971191406 188.04150390625 276.4059753417969 183.2241363525391 276.4059753417969 177.3042602539063 C 276.4059753417969 171.3833465576172 281.2243957519531 166.5660095214844 287.1452941894531 166.5660095214844 C 293.0651550292969 166.5660095214844 297.8836059570313 171.3833465576172 297.8836059570313 177.3042602539063 C 297.8836059570313 183.2241363525391 293.0662231445313 188.04150390625 287.1452941894531 188.04150390625 Z" stroke="none" fill="#d7cec6"/></g><path d="M273.511,206.941l2.072-6.477a1.825,1.825,0,0,0-.712-2.064,23.356,23.356,0,0,1-2.533-2,23.768,23.768,0,0,1-4.831-6.1,1.825,1.825,0,0,0-3.19,0,23.671,23.671,0,0,1-4.832,6.1,23.283,23.283,0,0,1-2.531,2,1.823,1.823,0,0,0-.711,2.063l2.073,6.477" transform="translate(1.453 3.114)" fill="none" stroke="#d7cec6" stroke-linecap="round" stroke-miterlimit="10" stroke-width="5"/><path d="M269.373,198.743" transform="translate(1.97 3.481)" fill="none" stroke="#d7cec6" stroke-linecap="round" stroke-width="5"/><path d="M306.6,206.983l-1.668-5.212q.748-.567,1.458-1.188a26.489,26.489,0,0,0,9.33-20.453,64.116,64.116,0,0,0-2.123-15.752c-.59-2.822-2.411-4.5-4.883-4.5a4.734,4.734,0,0,0-4.933,4.885,20.219,20.219,0,0,0,.37,3.3,47.5,47.5,0,0,1,.672,11.912c-.559,6.514-6.281,13.438-15.782,13.438-8.906,0-14.992-8.007-15.794-13.542-.46-3.173-.839-8.327-.881-8.918a5,5,0,0,0-10,0c-.043.59-.421,5.744-.88,8.918-.8,5.534-6.887,13.542-15.795,13.542-9.5,0-15.221-6.923-15.781-13.438a48.22,48.22,0,0,1,.694-12.009,16.284,16.284,0,0,0,.343-3.29,5.016,5.016,0,0,0-4.929-4.8c-2.45,0-4.231,1.651-4.881,4.5a77.4,77.4,0,0,0-2.126,15.758,28.329,28.329,0,0,0,9.334,20.452q.709.619,1.458,1.187l-1.669,5.213" transform="translate(0 1.96)" fill="none" stroke="#d7cec6" stroke-linecap="round" stroke-miterlimit="10" stroke-width="5"/><g transform="translate(0.741 0)" fill="none" stroke-linecap="round" stroke-linejoin="round"><path d="M266.627,163.393c7.678,0,25.234-13.464,28.272-29.74.886-4.752.557-12.191-3.287-17.526a15.161,15.161,0,0,0-10.668-6.225c-5.821-.8-10.779,1.848-14.331,7.605-3.62-5.839-8.47-8.409-14.31-7.605a15.163,15.163,0,0,0-10.666,6.224c-3.846,5.334-4.174,12.775-3.288,17.527C241.391,149.928,258.949,163.393,266.627,163.393Z" stroke="none"/><path d="M 266.6268005371094 158.3930969238281 C 266.900634765625 158.3930969238281 268.4204406738281 158.3089752197266 271.4572143554688 156.6482238769531 C 273.9692687988281 155.2744293212891 276.602783203125 153.3173370361328 279.0730895996094 150.9885101318359 C 281.7886657714844 148.428466796875 284.1927795410156 145.5068054199219 286.0254821777344 142.5393218994141 C 288.0497436523438 139.26171875 289.3816223144531 135.9633941650391 289.9840087890625 132.7366943359375 C 290.3768920898438 130.6304779052734 290.412353515625 128.1116333007813 290.0812683105469 125.8260345458984 C 289.6933898925781 123.1483459472656 288.820068359375 120.8054275512695 287.5563659667969 119.051399230957 C 285.8387756347656 116.6684646606445 283.4524841308594 115.2959518432617 280.2632141113281 114.855712890625 C 279.8129272460938 114.7937469482422 279.3682556152344 114.762321472168 278.9415893554688 114.762321472168 C 277.4092407226563 114.762321472168 276.0400085449219 115.1546249389648 274.755615234375 115.9616394042969 C 273.3331909179688 116.8553466796875 272.0258483886719 118.2587127685547 270.8698425292969 120.1327209472656 C 269.9603576660156 121.6071395874023 268.3524780273438 122.5056991577148 266.6201477050781 122.5077133178711 C 266.6181335449219 122.5077133178711 266.6163635253906 122.5077133178711 266.6143493652344 122.5077133178711 C 264.88427734375 122.5077133178711 263.2767639160156 121.613151550293 262.3649291992188 120.1425628662109 C 261.1821899414063 118.2350387573242 259.8710327148438 116.818733215332 258.4679260253906 115.9329833984375 C 257.2162780761719 115.1428527832031 255.8699035644531 114.7587585449219 254.3518981933594 114.7587585449219 C 253.9134979248047 114.7587585449219 253.4539489746094 114.7913970947266 252.9894714355469 114.8552856445313 C 249.7983856201172 115.2964706420898 247.4123077392578 116.6688766479492 245.6948394775391 119.0509719848633 C 244.4302978515625 120.804801940918 243.5569000244141 123.1472244262695 243.1690826416016 125.8249969482422 C 242.8380737304688 128.1105804443359 242.8736267089844 130.6297912597656 243.2664489746094 132.7356567382813 C 243.8691253662109 135.9628295898438 245.2012634277344 139.2610168457031 247.2258453369141 142.5385894775391 C 249.0588836669922 145.5060729980469 251.4633331298828 148.4278259277344 254.1792755126953 150.9879913330078 C 256.6499328613281 153.3169403076172 259.2837829589844 155.2741546630859 261.7960815429688 156.6480560302734 C 264.8331909179688 158.3089599609375 266.3529663085938 158.3930969238281 266.6268005371094 158.3930969238281 M 266.6268005371094 163.3930969238281 C 258.9488220214844 163.3930969238281 241.3907928466797 149.9282073974609 238.3514251708984 133.6535491943359 C 237.4650268554688 128.9016418457031 237.7933502197266 121.4605255126953 241.6391296386719 116.1267242431641 C 244.1631622314453 112.6259384155273 247.7501678466797 110.532096862793 252.3046875 109.9023971557617 C 253.0015258789063 109.8065567016602 253.6836700439453 109.7587585449219 254.3518981933594 109.7587585449219 C 259.2837829589844 109.7587585449219 263.4259948730469 112.3656158447266 266.6143493652344 117.5077133178711 C 269.7513427734375 112.4222412109375 273.9847412109375 109.762321472168 278.9415893554688 109.762321472168 C 279.5968627929688 109.762321472168 280.2651977539063 109.8088531494141 280.9448852539063 109.9023971557617 C 285.4993591308594 110.5310745239258 289.0884399414063 112.6259384155273 291.6125183105469 116.1277770996094 C 295.4561157226563 121.4626083374023 295.7856140136719 128.9016418457031 294.8992309570313 133.6535491943359 C 291.8608093261719 149.9292297363281 274.304931640625 163.3930969238281 266.6268005371094 163.3930969238281 Z" stroke="none" fill="#d7cec6"/></g></g></svg>