<svg xmlns="http://www.w3.org/2000/svg" width="108.126" height="108.073" viewBox="0 0 108.126 108.073"><defs/><g fill="#d7cec6"><path d="M58.421 100.395a46.313 46.313 0 1146.422-46.312 46.419 46.419 0 01-46.422 46.312m-55.139-20.5V27.14h14.171a48.746 48.746 0 00-.73 52.757zM58.421 5.1a49.074 49.074 0 00-39.126 19.44 1.315 1.315 0 00-.364-.073H3.283V1.947a1.336 1.336 0 00-2.671 0v104.179a1.336 1.336 0 002.671 0V82.567h15.238A49.039 49.039 0 1058.421 5.1"/><path d="M3.894 79.283h11.741a49.361 49.361 0 01.695-51.535H3.894zm13.932 1.223H2.671V26.529h15.922l-.629.951a48.134 48.134 0 00-.722 52.1zm40.6-72.124a45.7 45.7 0 1045.811 45.7 45.807 45.807 0 00-45.811-45.7m0 92.626a46.925 46.925 0 1147.034-46.926 47.033 47.033 0 01-47.034 46.926M1.951 1.222a.725.725 0 00-.724.725v104.182a.724.724 0 101.448 0V81.958h16.162l.183.254a48.369 48.369 0 10.766-57.3l-.253.332-.4-.113a1.2 1.2 0 00-.2-.05H2.673V1.951a.725.725 0 00-.724-.725m0 106.849a1.949 1.949 0 01-1.947-1.947V1.948a1.947 1.947 0 113.894 0v21.907h15.037c.039 0 .077 0 .114.005a49.649 49.649 0 1139.377 79.818 49.894 49.894 0 01-40.214-20.5H3.894v22.951a1.949 1.949 0 01-1.947 1.947"/><path d="M84.342 66.178h-4.06a38.327 38.327 0 002.7-10.555h1.356a5.278 5.278 0 110 10.555M64.066 79.561H50.297c-7.127-2.826-12.656-9.854-15.116-18.506h44c-2.46 8.652-7.989 15.679-15.116 18.506M33.782 47.117H80.59v3.906a37.02 37.02 0 01-.744 7.36h-45.32a36.928 36.928 0 01-.745-7.36zm50.563 5.835H83.2c.029-.641.061-1.281.061-1.929v-5.242a1.336 1.336 0 00-1.336-1.337H32.443a1.336 1.336 0 00-1.336 1.337v5.242c0 14.394 7.419 26.9 18.462 31.12a1.359 1.359 0 00.477.088H64.32a1.359 1.359 0 00.477-.088c6.03-2.3 10.966-7.09 14.217-13.295h5.328a7.95 7.95 0 100-15.9"/><path d="M35.027 57.773h44.314a36.413 36.413 0 00.636-6.75v-3.295H34.391v3.295a36.413 36.413 0 00.636 6.75m45.317 1.223H34.025l-.1-.489a37.627 37.627 0 01-.757-7.484v-4.518H81.2v4.518a37.712 37.712 0 01-.756 7.484zm.85 6.572h3.148a4.666 4.666 0 100-9.332h-.812a39.092 39.092 0 01-2.336 9.332m3.148 1.223h-4.971l.356-.847a37.763 37.763 0 002.656-10.387l.061-.543h1.9a5.889 5.889 0 110 11.778M50.418 78.95h13.535c6.525-2.634 11.866-9.052 14.415-17.281H36.002c2.549 8.23 7.89 14.648 14.415 17.281m13.771 1.223l-14.115-.043c-7.129-2.826-12.916-9.9-15.479-18.907l-.221-.778h45.624l-.223.778c-2.562 9.011-8.349 16.081-15.479 18.907zM32.445 45.058a.725.725 0 00-.724.724v5.242c0 14.143 7.26 26.42 18.068 30.552a.778.778 0 00.258.046h14.274a.734.734 0 00.261-.047 26.983 26.983 0 0013.891-13.009l.172-.326h5.7a7.337 7.337 0 000-14.674h-1.786l.037-.772c.027-.587.054-1.174.054-1.77v-5.242a.724.724 0 00-.723-.724zm31.876 37.787H50.047a1.937 1.937 0 01-.692-.127c-11.28-4.311-18.857-17.047-18.857-31.694v-5.242a1.949 1.949 0 011.947-1.947h49.479a1.948 1.948 0 011.946 1.947v5.242c0 .443-.013.881-.033 1.318h.505a8.56 8.56 0 010 17.12h-4.959a28.1 28.1 0 01-14.367 13.255 1.96 1.96 0 01-.695.127M53.62 41.068a1.336 1.336 0 000-2.671 1.817 1.817 0 110-3.633 4.489 4.489 0 100-8.977 1.336 1.336 0 000 2.671 1.818 1.818 0 010 3.635 4.487 4.487 0 100 8.975"/><path d="M53.621 26.398a.724.724 0 100 1.448 2.429 2.429 0 010 4.857 3.876 3.876 0 000 7.751.724.724 0 000-1.448 2.427 2.427 0 110-4.854 3.877 3.877 0 100-7.754m0 15.28a5.1 5.1 0 010-10.2 1.206 1.206 0 000-2.411 1.947 1.947 0 010-3.894 5.1 5.1 0 010 10.2 1.204 1.204 0 100 2.408 1.947 1.947 0 110 3.894M63.173 41.068a1.336 1.336 0 100-2.671 1.817 1.817 0 010-3.633 4.489 4.489 0 100-8.977 1.336 1.336 0 000 2.671 1.818 1.818 0 010 3.635 4.487 4.487 0 100 8.975"/><path d="M63.174 26.398a.724.724 0 100 1.448 2.429 2.429 0 010 4.857 3.876 3.876 0 100 7.751.724.724 0 000-1.448 2.427 2.427 0 110-4.854 3.877 3.877 0 000-7.754m0 15.28a5.1 5.1 0 010-10.2 1.206 1.206 0 000-2.411 1.947 1.947 0 110-3.894 5.1 5.1 0 010 10.2 1.204 1.204 0 100 2.408 1.947 1.947 0 010 3.894"/></g></svg>