<svg xmlns="http://www.w3.org/2000/svg" width="57.995" height="58" viewBox="0 0 57.995 58"><g transform="translate(-256.443 26.499)"><g transform="translate(256.443 -26.499)"><path d="M307.245,17.116c-.126,0-.253,0-.379.01l-.579-1.2h3.494a1.226,1.226,0,0,0,0-2.452H305.1l-.687-1.424a4.041,4.041,0,0,0,2.715-3.82V4.741A1.227,1.227,0,0,0,305.9,3.515h-3.069V-.93a9.62,9.62,0,0,0-9.609-9.608h-13.9l-1.867-12.007a4.73,4.73,0,0,0-5.417-3.894,4.682,4.682,0,0,0-3.067,1.9,4.68,4.68,0,0,0-.827,3.5l.133.856h-3.546a1.227,1.227,0,0,0-1.226,1.226v3.455a1.228,1.228,0,0,0,1.226,1.226,1.227,1.227,0,0,0,1.226-1.226v-2.229h2.7L270.821-3.77A17.747,17.747,0,1,0,291.94,13.654c0-.45-.018-.91-.054-1.371h9.92l2.612,5.415a7.184,7.184,0,1,0,2.826-.584Zm-2.566-8.888a1.606,1.606,0,0,1-1.6,1.6H291.522a17.594,17.594,0,0,0-1.335-3.865h14.491Zm-4.3-4.714H288.752a17.963,17.963,0,0,0-8.238-6.444l-.8-5.157h13.515a7.164,7.164,0,0,1,7.156,7.155ZM274.192-1.642a15.3,15.3,0,1,1-15.3,15.3A15.314,15.314,0,0,1,274.192-1.642Zm-.066-21.982a2.24,2.24,0,0,1,.915,1.464L277.912-3.7a17.763,17.763,0,0,0-3.72-.393c-.295,0-.6.009-.935.028l-2.683-17.347v0a2.253,2.253,0,0,1,.4-1.689,2.246,2.246,0,0,1,1.474-.913A2.247,2.247,0,0,1,274.126-23.624Zm37.86,47.933a4.741,4.741,0,1,1-4.741-4.741A4.747,4.747,0,0,1,311.986,24.309Z" transform="translate(-256.443 26.499)" fill="#090c38"/><g transform="translate(6.746 29.608)"><path d="M275.59,38.036a1.542,1.542,0,0,0-2.163.282c-.011.013-.05.067-.06.081a1.543,1.543,0,1,0,2.223-.363Z" transform="translate(-271.27 -34.308)" fill="#090c38"/><path d="M272.648,50.156v-.087a1.521,1.521,0,0,0-1.542-1.518,1.564,1.564,0,0,0-1.542,1.567v.038a1.542,1.542,0,1,0,3.085,0Z" transform="translate(-269.563 -39.573)" fill="#090c38"/><path d="M307.909,48.562h0a1.543,1.543,0,0,0-1.542,1.542c0,.018,0,.034,0,.048a1.53,1.53,0,0,0,1.542,1.528,1.555,1.555,0,0,0,1.542-1.525c0-.018,0-.036,0-.051A1.542,1.542,0,0,0,307.909,48.562Z" transform="translate(-287.444 -39.578)" fill="#090c38"/><path d="M295.738,31.185l-.068-.022a1.521,1.521,0,0,0-1.915.991,1.564,1.564,0,0,0,.993,1.953,1.543,1.543,0,0,0,.99-2.922Z" transform="translate(-281.28 -31.088)" fill="#090c38"/></g></g><path d="M304.388,37.762h0a1.543,1.543,0,0,0-1.542,1.543c0,.017,0,.034,0,.047a1.53,1.53,0,0,0,1.542,1.528,1.555,1.555,0,0,0,1.542-1.525c0-.018,0-.036,0-.051A1.542,1.542,0,0,0,304.388,37.762Z" transform="translate(-22.545 -31.222)" fill="#090c38"/><path d="M284.327,31.165l-.068-.023a1.521,1.521,0,0,0-1.915.992,1.563,1.563,0,0,0,.993,1.953,1.542,1.542,0,1,0,.99-2.922Z" transform="translate(-12.547 -27.97)" fill="#090c38"/><path d="M276.178,60.969v-.087a1.521,1.521,0,0,0-1.542-1.518,1.563,1.563,0,0,0-1.542,1.567v.038a1.542,1.542,0,0,0,3.085,0Z" transform="translate(-8.09 -41.717)" fill="#090c38"/><path d="M285.374,67.637V67.55a1.521,1.521,0,0,0-1.542-1.518,1.564,1.564,0,0,0-1.542,1.567v.038a1.542,1.542,0,1,0,3.085,0Z" transform="translate(-12.558 -44.957)" fill="#090c38"/><path d="M296.749,67.637V67.55a1.521,1.521,0,0,0-1.542-1.518,1.564,1.564,0,0,0-1.542,1.567v.038a1.542,1.542,0,1,0,3.085,0Z" transform="translate(-18.084 -44.957)" fill="#090c38"/><path d="M305.93,60.969v-.087a1.521,1.521,0,0,0-1.542-1.518,1.564,1.564,0,0,0-1.542,1.567v.038a1.542,1.542,0,1,0,3.085,0Z" transform="translate(-22.545 -41.717)" fill="#090c38"/></g></svg>