<svg xmlns="http://www.w3.org/2000/svg" width="112.001" height="105.892" viewBox="0 0 112.001 105.892"><g transform="translate(-515.781 11.497)"><path d="M583.231,14.122c0,19.032-23.119,39.263-23.119,39.263s-23.119-16.869-23.119-39.263a23.119,23.119,0,0,1,46.238,0Z" fill="none" stroke="#d7cec6" stroke-linecap="round" stroke-linejoin="round" stroke-width="5"/><circle cx="10.44" cy="10.44" r="10.44" transform="translate(549.672 3.682)" fill="none" stroke="#d7cec6" stroke-linecap="round" stroke-linejoin="round" stroke-width="5"/><path d="M601.807,65.239c0,12.921-15.7,26.656-15.7,26.656s-15.7-11.453-15.7-26.656a15.7,15.7,0,0,1,31.391,0Z" fill="none" stroke="#d7cec6" stroke-linecap="round" stroke-linejoin="round" stroke-width="5"/><circle cx="7.088" cy="7.088" r="7.088" transform="translate(579.024 58.152)" fill="none" stroke="#d7cec6" stroke-linecap="round" stroke-linejoin="round" stroke-width="5"/><path d="M549.672,65.239c0,12.921-15.7,26.656-15.7,26.656s-15.7-11.453-15.7-26.656a15.7,15.7,0,0,1,31.391,0Z" fill="none" stroke="#d7cec6" stroke-linecap="round" stroke-linejoin="round" stroke-width="5"/><circle cx="7.088" cy="7.088" r="7.088" transform="translate(526.889 58.152)" fill="none" stroke="#d7cec6" stroke-linecap="round" stroke-linejoin="round" stroke-width="5"/><path d="M625.282,15.378c0,12.921-15.7,26.655-15.7,26.655s-15.7-11.452-15.7-26.655a15.7,15.7,0,1,1,31.391,0Z" fill="none" stroke="#d7cec6" stroke-linecap="round" stroke-linejoin="round" stroke-width="5"/><circle cx="7.088" cy="7.088" r="7.088" transform="translate(602.499 8.29)" fill="none" stroke="#d7cec6" stroke-linecap="round" stroke-linejoin="round" stroke-width="5"/></g></svg>