<svg xmlns="http://www.w3.org/2000/svg" width="104.831" height="104.831" viewBox="0 0 104.831 104.831"><defs/><path fill="#d7cec6" d="M84.062 52.606v7.5q-.691-.174-1.375-.334v-5.707a3.953 3.953 0 00-3.949-3.949H66.36a3.954 3.954 0 00-3.949 3.949v3.163c-.352-.006-.7-.01-1.05-.012v-3.151a3.953 3.953 0 00-3.949-3.949H45.035a3.953 3.953 0 00-3.949 3.949v5.534a53.55 53.55 0 00-1.379.378v-7.485a8.719 8.719 0 012.561-5.9c3.519-3.774 10.306-5.779 19.62-5.792 9.271.013 16.038 2 19.57 5.738a8.673 8.673 0 012.605 6.074m-39.4 1.457a.374.374 0 01.375-.375h12.375a.375.375 0 01.375.375v3.21a81.709 81.709 0 00-13.127 1.5zm21.325 0a.375.375 0 01.375-.375h12.375a.374.374 0 01.375.375v4.938a95.888 95.888 0 00-13.127-1.648zm18.076 9.727v3.344H39.708v-3.417c4.194-1.311 21.515-5.847 44.354.073m0 6.918v3.3H39.709v-3.3zm-47.924 10.67a1.787 1.787 0 103.574 0v-3.8h44.35v3.8a1.787 1.787 0 103.574 0l-.005-28.643a12.16 12.16 0 00-3.51-8.585c-4.254-4.565-11.69-6.9-22.135-6.93h-.228c-10.414.033-17.85 2.365-22.105 6.93a12.048 12.048 0 00-3.514 8.457z"/><path fill="#d7cec6" d="M94.937 89.609H30.455V30.987h64.482zm-6.618-62.4H35.84V23.02h52.48zm12.728-11.348a3.376 3.376 0 01-3.373 3.373H3.782v-6.745h93.894a3.376 3.376 0 013.373 3.372M17.147 8.706h-6.91V3.782h6.91zm-6.91 14.309h6.91v78.033h-6.91zm87.444 0a7.155 7.155 0 100-14.309H20.926V1.889a1.893 1.893 0 00-1.892-1.89H8.341a1.893 1.893 0 00-1.891 1.89v6.817H1.891A1.893 1.893 0 000 10.597v10.527a1.893 1.893 0 001.891 1.891h4.556v79.923a1.893 1.893 0 001.891 1.892h10.695a1.893 1.893 0 001.892-1.892V23.015h11.133v4.189h-3.494a1.893 1.893 0 00-1.891 1.891v62.4a1.893 1.893 0 001.891 1.891H96.83a1.893 1.893 0 001.891-1.891v-62.4a1.893 1.893 0 00-1.891-1.891h-4.728v-4.189z"/></svg>