<svg xmlns="http://www.w3.org/2000/svg" width="54.392" height="55.389" viewBox="0 0 54.392 55.389"><g transform="translate(-217.762 -109.759)"><g transform="translate(-6.786 -25.133)" fill="none" stroke-miterlimit="10"><path d="M240.114,178.089a5.762,5.762,0,1,0-5.763-5.761A5.769,5.769,0,0,0,240.114,178.089Z" stroke="none"/><path d="M 240.1135559082031 175.5894165039063 C 241.9122009277344 175.5894165039063 243.3755187988281 174.1263427734375 243.3755187988281 172.3279724121094 C 243.3755187988281 170.5293121337891 241.9122009277344 169.0659942626953 240.1135559082031 169.0659942626953 C 238.3145904541016 169.0659942626953 236.8510131835938 170.5293121337891 236.8510131835938 172.3279724121094 C 236.8510131835938 174.1263427734375 238.3145904541016 175.5894165039063 240.1135559082031 175.5894165039063 M 240.1135559082031 178.0894165039063 C 236.9359436035156 178.0894165039063 234.3510131835938 175.5044860839844 234.3510131835938 172.3279724121094 C 234.3510131835938 169.1509094238281 236.9364929199219 166.5659942626953 240.1135559082031 166.5659942626953 C 243.2900390625 166.5659942626953 245.8755187988281 169.1509094238281 245.8755187988281 172.3279724121094 C 245.8755187988281 175.5044860839844 243.2906188964844 178.0894165039063 240.1135559082031 178.0894165039063 Z" stroke="none" fill="#090c38"/></g><g transform="translate(-25.393 -25.133)" fill="none" stroke-miterlimit="10"><path d="M282.169,178.089a5.762,5.762,0,1,0-5.763-5.761A5.769,5.769,0,0,0,282.169,178.089Z" stroke="none"/><path d="M 282.1685485839844 175.5894165039063 C 283.9672241210938 175.5894165039063 285.4305419921875 174.1263427734375 285.4305419921875 172.3279724121094 C 285.4305419921875 170.5293121337891 283.9672241210938 169.0659942626953 282.1685485839844 169.0659942626953 C 280.3695678710938 169.0659942626953 278.906005859375 170.5293121337891 278.906005859375 172.3279724121094 C 278.906005859375 174.1263427734375 280.3695678710938 175.5894165039063 282.1685485839844 175.5894165039063 M 282.1685485839844 178.0894165039063 C 278.9909057617188 178.0894165039063 276.406005859375 175.5044860839844 276.406005859375 172.3279724121094 C 276.406005859375 169.1509094238281 278.9914855957031 166.5659942626953 282.1685485839844 166.5659942626953 C 285.3450622558594 166.5659942626953 287.9305419921875 169.1509094238281 287.9305419921875 172.3279724121094 C 287.9305419921875 175.5044860839844 285.3456420898438 178.0894165039063 282.1685485839844 178.0894165039063 Z" stroke="none" fill="#090c38"/></g><path d="M265.469,198.8l1.112-3.475a.979.979,0,0,0-.382-1.107,12.533,12.533,0,0,1-1.359-1.071,12.754,12.754,0,0,1-2.592-3.273.979.979,0,0,0-1.712,0,12.7,12.7,0,0,1-2.593,3.274,12.5,12.5,0,0,1-1.358,1.071.978.978,0,0,0-.381,1.107l1.112,3.475" transform="translate(-16.434 -35.221)" fill="none" stroke="#090c38" stroke-linecap="round" stroke-miterlimit="10" stroke-width="2.5"/><path d="M269.373,198.743" transform="translate(-22.281 -39.369)" fill="none" stroke="#090c38" stroke-width="2.5"/><path d="M266.011,185.153l-.895-2.8q.4-.3.782-.637a14.214,14.214,0,0,0,5.006-10.975,34.4,34.4,0,0,0-1.139-8.452,2.686,2.686,0,0,0-2.62-2.417A2.54,2.54,0,0,0,264.5,162.5a10.851,10.851,0,0,0,.2,1.772,25.488,25.488,0,0,1,.361,6.392,8.18,8.18,0,0,1-8.468,7.211c-4.779,0-8.045-4.3-8.475-7.266-.247-1.7-.45-4.468-.473-4.785a2.685,2.685,0,0,0-5.367,0c-.023.317-.226,3.082-.472,4.785-.43,2.97-3.7,7.266-8.475,7.266a8.181,8.181,0,0,1-8.468-7.211,25.874,25.874,0,0,1,.372-6.444,8.738,8.738,0,0,0,.184-1.765,2.637,2.637,0,0,0-5.264-.162,41.533,41.533,0,0,0-1.141,8.456,15.2,15.2,0,0,0,5.009,10.974q.381.332.782.637l-.9,2.8" transform="translate(0 -22.173)" fill="none" stroke="#090c38" stroke-linecap="round" stroke-miterlimit="10" stroke-width="2.5"/><g transform="translate(-8.375)" fill="none" stroke-linejoin="round"><path d="M253.334,138.538c4.12,0,13.54-7.225,15.171-15.958.476-2.55.3-6.541-1.764-9.4a8.135,8.135,0,0,0-5.724-3.34c-3.124-.43-5.784.991-7.69,4.081-1.943-3.133-4.545-4.512-7.678-4.081a8.136,8.136,0,0,0-5.723,3.34c-2.064,2.862-2.24,6.855-1.764,9.4C239.793,131.313,249.214,138.538,253.334,138.538Z" stroke="none"/><path d="M 253.3342132568359 136.0381317138672 C 254.3874664306641 136.0381317138672 257.1947326660156 134.7899932861328 260.13818359375 132.0151214599609 C 261.6067810058594 130.6306457519531 262.9071960449219 129.0501251220703 263.8988952636719 127.4444427490234 C 264.9969787597656 125.6664733886719 265.7197875976563 123.8755950927734 266.0471496582031 122.1219177246094 C 266.4625244140625 119.8950347900391 266.2110290527344 116.7172012329102 264.7130737304688 114.6380920410156 C 263.7606201171875 113.3166885375977 262.4398498535156 112.5559387207031 260.6761779785156 112.3125 C 260.4263610839844 112.2781143188477 260.1793823242188 112.2606811523438 259.9421081542969 112.2606811523438 C 259.0844421386719 112.2606811523438 258.3179016113281 112.480354309082 257.5986938476563 112.932243347168 C 256.8115539550781 113.4268188476563 256.0903930664063 114.1996536254883 255.4552917480469 115.229248046875 C 255.0005340576172 115.9664611816406 254.1965942382813 116.4157409667969 253.3304138183594 116.4167404174805 C 253.3294067382813 116.4167404174805 253.3285217285156 116.4167404174805 253.3275146484375 116.4167404174805 C 252.4624786376953 116.4167404174805 251.6587371826172 115.9694595336914 251.2028198242188 115.2341537475586 C 250.5534515380859 114.1868591308594 249.8304595947266 113.4072799682617 249.0539398193359 112.9170837402344 C 248.3522186279297 112.4741134643555 247.5978393554688 112.2587738037109 246.7476959228516 112.2587738037109 C 246.5041809082031 112.2587738037109 246.2492065429688 112.2768630981445 245.9915771484375 112.3122940063477 C 244.2271118164063 112.5562515258789 242.9064178466797 113.3169326782227 241.9540557861328 114.6378402709961 C 240.4555816650391 116.7161178588867 240.2041320800781 119.8942108154297 240.6195678710938 122.1213912963867 C 240.9471282958984 123.8752899169922 241.6700744628906 125.6660919189453 242.7683258056641 127.4440536499023 C 243.7601776123047 129.0497589111328 245.060791015625 130.6302947998047 246.5295867919922 132.0148468017578 C 249.4735107421875 134.7899017333984 252.2809600830078 136.0381317138672 253.3342132568359 136.0381317138672 M 253.3342132568359 138.5381317138672 C 249.2143096923828 138.5381317138672 239.7929534912109 131.3130798339844 238.1620635986328 122.5803375244141 C 237.6864471435547 120.0305480957031 237.8626251220703 116.0377502441406 239.9262084960938 113.1757202148438 C 241.2805633544922 111.297248840332 243.2053070068359 110.1737442016602 245.6491851806641 109.8358535766602 C 246.0231018066406 109.784423828125 246.3891296386719 109.7587738037109 246.7476959228516 109.7587738037109 C 249.3940582275391 109.7587738037109 251.6167297363281 111.1575775146484 253.3275299072266 113.9167404174805 C 255.0108032226563 111.1879577636719 257.2823486328125 109.7606887817383 259.9421081542969 109.7606887817383 C 260.293701171875 109.7606887817383 260.6523742675781 109.7856597900391 261.0170593261719 109.8358535766602 C 263.4609375 110.1731796264648 265.3867797851563 111.297248840332 266.7411499023438 113.1762847900391 C 268.8035888671875 116.0388717651367 268.9803771972656 120.0305480957031 268.5047607421875 122.5803375244141 C 266.8743896484375 131.3136291503906 257.4541625976563 138.5381317138672 253.3342132568359 138.5381317138672 Z" stroke="none" fill="#090c38"/></g></g></svg>