<svg xmlns="http://www.w3.org/2000/svg" width="90.225" height="101.789" viewBox="0 0 90.225 101.789"><g transform="translate(-545.363 -146.543)"><path d="M609.587,181.92a9.375,9.375,0,1,0-9.375-9.375A9.375,9.375,0,0,0,609.587,181.92Z" fill="none" stroke="#d7cec6" stroke-linecap="round" stroke-linejoin="round" stroke-width="5"/><path d="M589.891,159.824a1.56,1.56,0,0,0-1.523.962l-2.1,5.069a1.564,1.564,0,0,0,.4,1.758l3.838,3.465v2.934l-3.838,3.465a1.563,1.563,0,0,0-.4,1.757l2.1,5.07a1.563,1.563,0,0,0,1.523.962l5.164-.264,2.074,2.075-.264,5.163a1.564,1.564,0,0,0,.963,1.524l5.069,2.1a1.561,1.561,0,0,0,1.758-.4l3.465-3.838h2.933l3.465,3.838a1.561,1.561,0,0,0,1.758.4l5.069-2.1a1.564,1.564,0,0,0,.963-1.524l-.264-5.163L624.118,185l5.164.264a1.558,1.558,0,0,0,1.523-.962l2.1-5.07a1.563,1.563,0,0,0-.4-1.757l-3.838-3.465v-2.934l3.838-3.465a1.564,1.564,0,0,0,.4-1.758l-2.1-5.068a1.561,1.561,0,0,0-1.523-.962l-5.164.262-2.074-2.073.264-5.164a1.564,1.564,0,0,0-.963-1.524l-5.069-2.1a1.563,1.563,0,0,0-1.758.4l-3.465,3.838H608.12l-3.465-3.838a1.563,1.563,0,0,0-1.758-.4l-5.068,2.1a1.562,1.562,0,0,0-.963,1.523l.264,5.164-2.075,2.074Z" fill="none" stroke="#d7cec6" stroke-linecap="round" stroke-linejoin="round" stroke-width="5"/><path d="M616.781,204.5v41.331H547.863V163.17h31.486" fill="none" stroke="#d7cec6" stroke-linecap="round" stroke-linejoin="round" stroke-width="5"/><rect width="15.193" height="15.193" transform="translate(561.357 204.501)" fill="none" stroke="#d7cec6" stroke-linecap="round" stroke-linejoin="round" stroke-width="5"/><rect width="15.193" height="15.193" transform="translate(587.867 204.501)" fill="none" stroke="#d7cec6" stroke-linecap="round" stroke-linejoin="round" stroke-width="5"/><line x2="15.482" transform="translate(561.618 192.328)" fill="none" stroke="#d7cec6" stroke-linecap="round" stroke-linejoin="round" stroke-width="5"/><line x2="41.703" transform="translate(561.357 231.867)" fill="none" stroke="#d7cec6" stroke-linecap="round" stroke-linejoin="round" stroke-width="5"/><line x2="6.062" transform="translate(561.618 174.493)" fill="none" stroke="#d7cec6" stroke-linecap="round" stroke-linejoin="round" stroke-width="5"/><line x2="15.482" transform="translate(561.618 183.115)" fill="none" stroke="#d7cec6" stroke-linecap="round" stroke-linejoin="round" stroke-width="5"/></g></svg>