<svg xmlns="http://www.w3.org/2000/svg" width="68.87" height="49.902" viewBox="0 0 68.87 49.902"><g transform="translate(15.122 -143.443)"><g transform="translate(-3.464 143.443)" fill="none" stroke="#090c38" stroke-miterlimit="10" stroke-width="2.5"><circle cx="24.951" cy="24.951" r="24.951" stroke="none"/><circle cx="24.951" cy="24.951" r="23.701" fill="none"/></g><g transform="translate(3.844 150.751)" fill="none" stroke="#090c38" stroke-miterlimit="10" stroke-width="2.5"><circle cx="17.643" cy="17.643" r="17.643" stroke="none"/><circle cx="17.643" cy="17.643" r="16.393" fill="none"/></g><g transform="translate(-13.872 146.373)"><line y1="44.127" transform="translate(7.204 0)" fill="none" stroke="#090c38" stroke-linecap="round" stroke-miterlimit="10" stroke-width="2.5"/><g transform="translate(0 0)"><path d="M-13.872,149.085v9.026a7.2,7.2,0,0,0,7.2,7.2,7.2,7.2,0,0,0,7.2-7.2v-9.026" transform="translate(13.872 -149.085)" fill="none" stroke="#090c38" stroke-linecap="round" stroke-miterlimit="10" stroke-width="2.5"/></g></g><g transform="translate(45.294 146.373)"><line y1="44.127" transform="translate(0 0)" fill="none" stroke="#090c38" stroke-linecap="round" stroke-miterlimit="10" stroke-width="2.5"/><g transform="translate(0 12.628)"><path d="M100.054,191.411a7.2,7.2,0,0,0,7.2-7.2V173.4" transform="translate(-100.054 -173.401)" fill="none" stroke="#090c38" stroke-linecap="round" stroke-miterlimit="10" stroke-width="2.5"/></g><g transform="translate(0 0)"><path d="M100.054,149.085a7.2,7.2,0,0,1,7.2,7.2V167.1" transform="translate(-100.054 -149.085)" fill="none" stroke="#090c38" stroke-linecap="round" stroke-miterlimit="10" stroke-width="2.5"/></g></g><path d="M51.385,178.515a4.033,4.033,0,0,0-3.627,2.824,4.033,4.033,0,0,0-3.627-2.824c-2.208,0-4,2.173-4,4.855,0,6.778,7.623,9.007,7.623,9.007s7.623-2.516,7.623-9.007C55.382,180.688,53.593,178.515,51.385,178.515Z" transform="translate(-25.959 -16.858)" fill="none" stroke="#090c38" stroke-linecap="round" stroke-linejoin="round" stroke-width="2.5"/></g></svg>