<svg xmlns="http://www.w3.org/2000/svg" width="63.621" height="101.65" viewBox="0 0 63.621 101.65"><g transform="translate(-664.973 -146.717)"><path d="M683.271,219.008a15.984,15.984,0,0,1-15.8-13.68h11.238a15.983,15.983,0,0,1,15.8,13.68Z" fill="none" stroke="#d7cec6" stroke-linecap="round" stroke-linejoin="round" stroke-width="5"/><path d="M683.271,245.867a15.984,15.984,0,0,1-15.8-13.679h11.238a15.983,15.983,0,0,1,15.8,13.679Z" fill="none" stroke="#d7cec6" stroke-linecap="round" stroke-linejoin="round" stroke-width="5"/><path d="M714.857,216.728h11.237a15.981,15.981,0,0,1-15.8,13.679H699.059A15.984,15.984,0,0,1,714.857,216.728Z" fill="none" stroke="#d7cec6" stroke-linecap="round" stroke-linejoin="round" stroke-width="5"/><line y1="47.253" transform="translate(696.784 198.614)" fill="none" stroke="#d7cec6" stroke-linecap="round" stroke-linejoin="round" stroke-width="5"/><circle cx="24.699" cy="24.699" r="24.699" transform="translate(672.085 149.217)" fill="none" stroke="#d7cec6" stroke-linecap="round" stroke-linejoin="round" stroke-width="5"/><circle cx="9.344" cy="9.344" r="9.344" transform="translate(687.44 158.639)" fill="none" stroke="#d7cec6" stroke-linecap="round" stroke-linejoin="round" stroke-width="5"/><path d="M680.385,192.328c0-8.246,7.357-14.955,16.4-14.955s16.4,6.709,16.4,14.955" fill="none" stroke="#d7cec6" stroke-linecap="round" stroke-linejoin="round" stroke-width="5"/></g></svg>