<svg xmlns="http://www.w3.org/2000/svg" width="114.793" height="90.616" viewBox="0 0 114.793 90.616"><defs/><g fill="#d7cec6"><path d="M30.684 26.986a2.366 2.366 0 00-.531 1.6l.594 3.676-3.289-1.762a1.424 1.424 0 00-.924-.206 1.653 1.653 0 00-.885.186l-3.329 1.782.58-3.617a1.777 1.777 0 00-.5-1.643l-2.388-2.626 3.681-.6a2.219 2.219 0 001.4-.817l1.732-3.421 1.642 3.277a1.39 1.39 0 001.428.957l3.659.592-2.853 2.615zm8.376-4.512a2.274 2.274 0 00-1.686-1.142l-6.324-.964-2.755-5.782a1.7 1.7 0 00-1.617-.971 1.7 1.7 0 00-1.613.956l-2.76 5.8-6.383.974a1.732 1.732 0 00-1.406 1.263 1.622 1.622 0 00.528 1.775l4.553 4.417-1.1 6.323a1.725 1.725 0 00.722 1.818 2.026 2.026 0 001.122.356 1.82 1.82 0 00.82-.2l5.658-3.036 5.618 3.016a1.424 1.424 0 00.924.206 2.388 2.388 0 001.058-.346 1.713 1.713 0 00.726-1.79l-1.1-6.351 4.557-4.419a1.806 1.806 0 00.516-1.8zM92.118 26.986a2.365 2.365 0 00-.531 1.6l.594 3.675-3.3-1.764a1.411 1.411 0 00-1.658-.018l-3.328 1.782.58-3.618a1.782 1.782 0 00-.51-1.649l-2.5-2.624 3.661-.6a2.219 2.219 0 001.4-.817l1.719-3.4 1.512 3.252a1.448 1.448 0 001.416.956h.013l3.678.594-2.737 2.616zm8.376-4.511a2.273 2.273 0 00-1.686-1.142l-6.324-.964-2.786-5.841a1.95 1.95 0 00-1.587-1.018 1.738 1.738 0 00-1.612 1.062l-2.76 5.8-6.383.974a1.731 1.731 0 00-1.406 1.263 1.622 1.622 0 00.529 1.775l4.553 4.417-1.1 6.323a1.734 1.734 0 00.761 1.84 2.316 2.316 0 001.018.324 1.659 1.659 0 00.885-.185l5.658-3.036 5.627 3.017a1.285 1.285 0 00.733.216 2.838 2.838 0 001.239-.357 1.711 1.711 0 00.727-1.791l-1.1-6.351 4.557-4.419a1.806 1.806 0 00.516-1.8z"/><path d="M65.017 55.69v-4.326h46.054v4.326a3.154 3.154 0 01-3.188 3.188H68.205a3.154 3.154 0 01-3.188-3.188m-15.383 0a3.154 3.154 0 01-3.188 3.188H6.768a3.155 3.155 0 01-3.189-3.188v-4.326h46.055zm36.7 31.489H28.466c.005-.078.005-.148.005-.2V62.803v-.2h18.122a6.66 6.66 0 006.572-5.547h8.474a6.747 6.747 0 006.571 5.547h18.126c-.005.078-.005.148-.005.2v24.176c0 .054 0 .124.005.2M69.147 47.785V19.708a16.148 16.148 0 0116.129-16.13h5.548a16.148 16.148 0 0116.129 16.13v28.076zm-61.438 0V19.708a16.149 16.149 0 0116.13-16.13h5.547a16.149 16.149 0 0116.13 16.13v28.076zm107.09 7.9V49.57a1.712 1.712 0 00-1.789-1.789h-2.335V19.704A19.73 19.73 0 0090.966-.005h-5.547A19.73 19.73 0 0065.71 19.704v28.08h-2.335a1.712 1.712 0 00-1.789 1.789v3.756h-8.23v-3.756a1.712 1.712 0 00-1.789-1.789h-2.334V19.707A19.731 19.731 0 0029.524-.002h-5.547A19.73 19.73 0 004.268 19.707v28.077H1.932a1.712 1.712 0 00-1.789 1.789v6.115a6.774 6.774 0 006.768 6.766h18.126c-.005.079-.005.148-.005.2v24.377H1.79a1.712 1.712 0 00-1.789 1.79A1.712 1.712 0 001.79 90.61h111.072a1.712 1.712 0 001.789-1.789 1.712 1.712 0 00-1.789-1.79H89.9c.005-.079.005-.149.005-.2V62.654v-.2h18.123a6.774 6.774 0 006.766-6.766"/></g></svg>