<svg xmlns="http://www.w3.org/2000/svg" width="60.114" height="62.164" viewBox="0 0 60.114 62.164"><g transform="translate(471.293 62.133)"><path d="M-448.527,2.719c0,11.314-10.758,18.919-10.758,18.919s-10.758-8.532-10.758-18.919A10.758,10.758,0,0,1-459.285-8.039,10.758,10.758,0,0,1-448.527,2.719Z" transform="translate(0 -23.167)" fill="none" stroke="#090c38" stroke-linecap="round" stroke-miterlimit="10" stroke-width="2.5"/><circle cx="5.508" cy="5.508" r="5.508" transform="translate(-464.793 -25.957)" fill="none" stroke="#090c38" stroke-linecap="round" stroke-miterlimit="10" stroke-width="2.5"/><path d="M-386.766-50.125c0,11.314-10.758,18.919-10.758,18.919s-10.757-8.532-10.757-18.919a10.757,10.757,0,0,1,10.757-10.758A10.757,10.757,0,0,1-386.766-50.125Z" transform="translate(-27.077 0)" fill="none" stroke="#090c38" stroke-linecap="round" stroke-miterlimit="10" stroke-width="2.5"/><circle cx="5.508" cy="5.508" r="5.508" transform="translate(-430.109 -55.633)" fill="none" stroke="#090c38" stroke-linecap="round" stroke-miterlimit="10" stroke-width="2.5"/><path d="M-430.14-19.6h-15.239s-5.508,0-5.508,6.492" transform="translate(-8.398 -18.099)" fill="none" stroke="#090c38" stroke-linecap="round" stroke-miterlimit="10" stroke-width="2.5"/><path d="M-431.731,7.484h30.047c7.976,0,8.161,15.765,0,15.765h-30.047" transform="translate(-16.796 -29.973)" fill="none" stroke="#090c38" stroke-linecap="round" stroke-miterlimit="10" stroke-width="2.5"/></g></svg>