<svg xmlns="http://www.w3.org/2000/svg" width="102.043" height="109.251" viewBox="0 0 102.043 109.251"><defs/><path fill="#d7cec6" d="M78.715 12.801a2.1 2.1 0 00-3 .684 2.1 2.1 0 00.682 3 46.4 46.4 0 0121.282 39.153 46.636 46.636 0 01-46.656 46.656 46.38 46.38 0 01-17.189-3.274l3-.682a2.157 2.157 0 001.637-2.593 2.1 2.1 0 00-2.593-1.637l-9.276 2.182a1.966 1.966 0 00-1.5 1.228v.137a2.33 2.33 0 000 1.91l4.366 8.457a2.312 2.312 0 001.91 1.228 2.523 2.523 0 00.954-.272 2.122 2.122 0 00.956-2.865l-1.5-3a51.986 51.986 0 0019.236 3.819 51.119 51.119 0 0051.022-51.022A51 51 0 0078.718 12.8M21.145 91.652a47.1 47.1 0 01-16.78-36.015A46.723 46.723 0 0151.022 8.98a45.173 45.173 0 0111.323 1.364l-2.729 1.091a2.221 2.221 0 00-1.228 2.865 2.1 2.1 0 002.047 1.365 1.722 1.722 0 00.818-.137l8.867-3.41a2.009 2.009 0 001.228-1.365v-.272a2.465 2.465 0 00-.272-1.91L65.482.795a2.475 2.475 0 00-3.137-.409 2.181 2.181 0 00-.547 3l2.047 2.865a51.147 51.147 0 00-12.96-1.637A51.089 51.089 0 000 55.635a51.137 51.137 0 0018.417 39.29 2.885 2.885 0 001.363.546 1.948 1.948 0 001.638-.819 2.027 2.027 0 00-.273-3"/><path fill="#d7cec6" d="M62.206 55.365L51.02 66.688 39.831 55.502a5.437 5.437 0 010-7.776 5.389 5.389 0 013.82-1.638 4.954 4.954 0 013.819 1.638l3.547 3.547 3.547-3.547a5.691 5.691 0 017.776 0 5.391 5.391 0 01-.137 7.639m3.138-10.777a9.7 9.7 0 00-6.957-2.865 9.7 9.7 0 00-6.959 2.865l-.409.546-.409-.409a9.7 9.7 0 00-6.957-2.866 9.7 9.7 0 00-6.958 2.866 9.881 9.881 0 000 13.914l14.324 14.188L65.34 58.503a9.879 9.879 0 000-13.914M32.195 85.104a2.1 2.1 0 00-3 .684l-2.319 3.683a2.1 2.1 0 00.682 3 2.03 2.03 0 001.228.272 2.333 2.333 0 001.773-.954l2.319-3.685a2.1 2.1 0 00-.682-3M14.323 77.329a1.965 1.965 0 00.954-.273l3.957-2.046a2.24 2.24 0 00.954-3 2.239 2.239 0 00-3-.955l-3.956 2.046a2.239 2.239 0 00-.954 3 2.4 2.4 0 002.046 1.228M16.098 54.683a2.155 2.155 0 00-2.182-2.182l-4.366-.137a2.154 2.154 0 00-2.182 2.182A2.155 2.155 0 009.55 56.73l4.366.135a2.155 2.155 0 002.182-2.182M21.008 37.63a2.186 2.186 0 00-.682-3l-3.819-2.32a2.186 2.186 0 00-3 .684 2.189 2.189 0 00.681 3l3.82 2.318a1.638 1.638 0 001.091.273 1.834 1.834 0 001.91-.956M34.645 22.21l-2.182-3.819a2.2 2.2 0 00-3-.818 2.194 2.194 0 00-.819 3l2.182 3.819a2.183 2.183 0 001.91 1.092 3.21 3.21 0 001.091-.275 2.324 2.324 0 00.819-3M53.204 18.531v-4.366a2.155 2.155 0 00-2.182-2.182 2.156 2.156 0 00-2.184 2.182v4.366a2.155 2.155 0 002.184 2.182 2.154 2.154 0 002.182-2.182M48.843 92.744v4.366a2.155 2.155 0 002.182 2.182 2.156 2.156 0 002.184-2.182v-4.366a2.155 2.155 0 00-2.184-2.182 2.154 2.154 0 00-2.182 2.182M69.617 18.394l-2.159 3.819a2.24 2.24 0 00.81 3 2.513 2.513 0 001.08.274 2.152 2.152 0 001.89-1.091l2.159-3.82a2.242 2.242 0 00-.81-3 2.194 2.194 0 00-2.971.819M85.535 32.446l-3.82 2.319a2.076 2.076 0 00-.681 3 2.175 2.175 0 001.909 1.091 2.592 2.592 0 001.092-.272l3.819-2.319a2.076 2.076 0 00.682-3 2.14 2.14 0 00-3-.819M94.676 54.546a2.243 2.243 0 00-2.182-2.182l-4.366.136a2.244 2.244 0 00-2.182 2.184 2.154 2.154 0 002.182 2.182l4.366-.137a2.005 2.005 0 002.182-2.182M84.852 71.189a2.279 2.279 0 00-3 .955 2.278 2.278 0 00.954 3l3.957 2.047a2.518 2.518 0 00.954.272 2.176 2.176 0 001.91-1.091 2.279 2.279 0 00-.954-3zM69.847 85.104a2.217 2.217 0 00-.682 3l2.319 3.685a1.987 1.987 0 001.773.954 4 4 0 001.228-.272 2.215 2.215 0 00.682-3l-2.319-3.683a2.357 2.357 0 00-3-.684"/></svg>