<svg xmlns="http://www.w3.org/2000/svg" width="87.312" height="108.568" viewBox="0 0 87.312 108.568"><g transform="translate(-374.046 13.767)"><path d="M417.8-11.267l3.889,7.879,8.7,1.263L424.1,4.008l1.485,8.66L417.8,8.58l-7.777,4.089,1.485-8.66-6.292-6.133,8.7-1.263Z" fill="none" stroke="#d7cec6" stroke-linecap="round" stroke-linejoin="round" stroke-width="5"/><path d="M431.956,15.377l2.953,5.983,6.6.959-4.778,4.657,1.128,6.576-5.906-3.1-5.906,3.1,1.128-6.576L422.4,22.32l6.6-.959Z" fill="none" stroke="#d7cec6" stroke-linecap="round" stroke-linejoin="round" stroke-width="5"/><path d="M402.919,15.377l2.953,5.983,6.6.959L407.7,26.978l1.128,6.576-5.906-3.1-5.906,3.1,1.128-6.576-4.778-4.657,6.6-.959Z" fill="none" stroke="#d7cec6" stroke-linecap="round" stroke-linejoin="round" stroke-width="5"/><path d="M417.872,36.263l2.953,5.983,6.6.959-4.778,4.657,1.128,6.576-5.906-3.1-5.906,3.1,1.128-6.576-4.778-4.657,6.6-.959Z" fill="none" stroke="#d7cec6" stroke-linecap="round" stroke-linejoin="round" stroke-width="5"/><path d="M437.81,92.087s-.375-4.181,4.438-8.871C448.909,76.726,458.8,71.7,458.8,50.75c0-2.564.056-22.624.056-22.624s.247-5.932-4.958-5.932c-5.931,0-5.68,6.1-5.68,6.1V44.31" fill="none" stroke="#d7cec6" stroke-linecap="round" stroke-linejoin="round" stroke-width="5"/><path d="M417.8,92.087V72.218c0-3.245,1.054-6.358,7.015-10.239s11.5-13.76,13.9-17.669c3.8-6.183,12.055-1.375,8.918,4.785C444.75,54.757,434.5,71.309,434.5,71.309" fill="none" stroke="#d7cec6" stroke-linecap="round" stroke-linejoin="round" stroke-width="5"/><path d="M397.6,92.087s.375-4.181-4.438-8.871C386.5,76.726,376.6,71.7,376.6,50.75c0-2.564-.056-22.624-.056-22.624s-.246-5.932,4.959-5.932c5.93,0,5.68,6.1,5.68,6.1V44.31" fill="none" stroke="#d7cec6" stroke-linecap="round" stroke-linejoin="round" stroke-width="5"/><path d="M417.6,92.087V72.218c0-3.245-1.055-6.358-7.015-10.239s-11.5-13.76-13.9-17.669c-3.8-6.183-12.055-1.375-8.917,4.785,2.885,5.662,13.138,22.214,13.138,22.214" fill="none" stroke="#d7cec6" stroke-linecap="round" stroke-linejoin="round" stroke-width="5"/></g></svg>