<svg xmlns="http://www.w3.org/2000/svg" width="64.742" height="49.073" viewBox="0 0 64.742 49.073"><g transform="translate(617.064 -139.11)"><path d="M-603.932,185.639l.018.018,9.275,9.275a2.314,2.314,0,0,0,3.27,0,2.319,2.319,0,0,0,0-3.271l-5.9-5.9a1.263,1.263,0,0,1-.371-.894,12.242,12.242,0,0,0-12.226-12.227h-5.944" transform="translate(-0.001 -14.735)" fill="none" stroke="#090c38" stroke-linecap="round" stroke-miterlimit="10" stroke-width="2.5"/><path d="M-615.814,201.231h.793a9.581,9.581,0,0,1,6.813,2.821l8.587,8.588a7.062,7.062,0,0,0,5.023,2.08h18.315a2.248,2.248,0,0,0,2.249-2.247,2.248,2.248,0,0,0-2.06-2.241l-14.647-2.053" transform="translate(0 -27.787)" fill="none" stroke="#090c38" stroke-linecap="round" stroke-miterlimit="10" stroke-width="2.5"/><path d="M-534.274,161.479l-.018-.017-9.276-9.275a2.314,2.314,0,0,0-3.27,0,2.319,2.319,0,0,0,0,3.27l5.9,5.9a1.263,1.263,0,0,1,.371.894,12.241,12.241,0,0,0,12.226,12.227h5.945" transform="translate(-31.179 -5.089)" fill="none" stroke="#090c38" stroke-linecap="round" stroke-miterlimit="10" stroke-width="2.5"/><path d="M-536.386,153.849h-.794a9.583,9.583,0,0,1-6.813-2.821l-8.587-8.589a7.061,7.061,0,0,0-5.023-2.079h-18.315a2.248,2.248,0,0,0-2.249,2.247,2.248,2.248,0,0,0,2.06,2.241l14.647,2.053" transform="translate(-17.186 0)" fill="none" stroke="#090c38" stroke-linecap="round" stroke-miterlimit="10" stroke-width="2.5"/><path d="M-560.936,173.2a4.22,4.22,0,0,0-3.8,2.955,4.221,4.221,0,0,0-3.8-2.955c-2.31,0-4.183,2.275-4.183,5.081,0,7.093,7.979,9.427,7.979,9.427s7.978-2.633,7.978-9.427C-556.753,175.478-558.626,173.2-560.936,173.2Z" transform="translate(-19.677 -14.993)" fill="none" stroke="#090c38" stroke-linecap="round" stroke-linejoin="round" stroke-width="2.5"/></g></svg>