<svg xmlns="http://www.w3.org/2000/svg" width="58.767" height="56.424" viewBox="0 0 58.767 56.424"><g transform="translate(-316.043 -253.836)"><path d="M328.2,273.354a8.177,8.177,0,0,0,.027-14.264l0,6.712-3.356,1.677-3.356-1.679,0-6.712a8.14,8.14,0,0,0-.018,14.253V296.4a7.553,7.553,0,1,0,6.719,0c0-10.327-.017-12.719-.017-23.046Z" transform="translate(0 -1.754)" fill="none" stroke="#090c38" stroke-linejoin="round" stroke-width="2.5"/><path d="M331.433,333.109l-3.125-1.737-3.123,1.735v3.472l3.124,1.737,3.124-1.735Z" transform="translate(-3.458 -33.436)" fill="none" stroke="#090c38" stroke-linecap="round" stroke-linejoin="round" stroke-width="2.5"/><g transform="translate(-15.138 -16.724)" fill="none" stroke-miterlimit="10"><path d="M351.833,326.985V304.1a10.86,10.86,0,0,1,21.719,0v22.882Z" stroke="none"/><path d="M 371.0523681640625 324.4849548339844 L 371.0523681640625 304.1030578613281 C 371.0519409179688 299.4942932128906 367.3020935058594 295.7444152832031 362.6925354003906 295.7439880371094 C 358.08349609375 295.7439880371094 354.3334350585938 299.4938659667969 354.3330078125 304.1028442382813 L 354.3330078125 324.4849548339844 L 371.0523681640625 324.4849548339844 M 373.5523681640625 326.9849548339844 L 351.8330078125 326.9849548339844 L 351.8330078125 304.1028442382813 C 351.8335571289063 298.1053466796875 356.6951599121094 293.2439880371094 362.6925354003906 293.2439880371094 C 362.6929016113281 293.2439880371094 362.6931762695313 293.2439880371094 362.6935424804688 293.2439880371094 C 368.6902770996094 293.2445678710938 373.5518188476563 298.1055297851563 373.5523681640625 304.1028442382813 L 373.5523681640625 326.9849548339844 Z" stroke="none" fill="#090c38"/></g><line x1="21.719" transform="translate(336.695 301.483)" fill="none" stroke="#090c38" stroke-miterlimit="10" stroke-width="2.5"/><path d="M372.212,318.241a4.762,4.762,0,0,1-9.523,0" transform="translate(-19.896 -27.68)" fill="none" stroke="#090c38" stroke-linecap="round" stroke-miterlimit="10" stroke-width="2.5"/><line x2="10.855" transform="translate(362.705 308.882)" fill="none" stroke="#090c38" stroke-linecap="round" stroke-miterlimit="10" stroke-width="2.5"/><path d="M392.129,308.882v-42.05c0-15.6-20.963-15.723-20.963,0V282.7" transform="translate(-23.611)" fill="none" stroke="#090c38" stroke-linecap="round" stroke-miterlimit="10" stroke-width="2.5"/></g></svg>