<svg xmlns="http://www.w3.org/2000/svg" width="67.115" height="52.716" viewBox="0 0 67.115 52.716"><g transform="translate(-15573.749 -2562.566)"><g transform="translate(16334.365 2108.536)"><rect width="22.935" height="26.425" transform="translate(-717.686 479.07)" fill="none" stroke="#090c38" stroke-linecap="round" stroke-linejoin="round" stroke-width="2.5"/><path d="M-692.616,475.758l4.29-8.708h-46.8l6.15,18.529" transform="translate(-13.074 -6.349)" fill="none" stroke="#090c38" stroke-linecap="round" stroke-linejoin="round" stroke-width="2.5"/><path d="M-700.141,517.631h-26.7l2.333-10.349" transform="translate(-17.546 -28.052)" fill="none" stroke="#090c38" stroke-linecap="round" stroke-linejoin="round" stroke-width="2.5"/><path d="M-661.985,496.378c0-12.027,16.595-12.01,16.595,0" transform="translate(-52.531 -17.308)" fill="none" stroke="#090c38" stroke-linecap="round" stroke-linejoin="round" stroke-width="2.5"/><ellipse cx="4.454" cy="4.14" rx="4.454" ry="4.14" transform="translate(-744.201 494.63)" fill="none" stroke="#090c38" stroke-linecap="round" stroke-linejoin="round" stroke-width="2.5"/><path d="M-674.642,541.521a4.306,4.306,0,0,0-4.454,4.14,4.306,4.306,0,0,0,4.454,4.14" transform="translate(-43.301 -46.522)" fill="none" stroke="#090c38" stroke-linecap="round" stroke-linejoin="round" stroke-width="2.5"/><path d="M-748.2,460.7l-1.969-5.421h-9.193" fill="none" stroke="#090c38" stroke-linecap="round" stroke-linejoin="round" stroke-width="2.5"/><line x2="24.11" transform="translate(-742.053 479.23)" fill="none" stroke="#090c38" stroke-linecap="round" stroke-linejoin="round" stroke-width="2.5"/></g></g></svg>