<svg xmlns="http://www.w3.org/2000/svg" width="90.606" height="93.055" viewBox="0 0 90.606 93.055"><defs/><path fill="#d7cec6" d="M31.726 8.026H10.252a2.2 2.2 0 00-2.223 2.225 2.2 2.2 0 002.223 2.222h21.474a2.2 2.2 0 002.222-2.222 2.2 2.2 0 00-2.222-2.225zM31.726 16.158H10.252a2.2 2.2 0 00-2.223 2.224 2.2 2.2 0 002.223 2.223h21.474a2.2 2.2 0 002.222-2.223 2.2 2.2 0 00-2.222-2.224zM31.726 24.184H10.252a2.2 2.2 0 00-2.223 2.224 2.2 2.2 0 002.223 2.224h21.474a2.2 2.2 0 002.222-2.224 2.2 2.2 0 00-2.222-2.224zM31.726 32.211H10.252a2.2 2.2 0 00-2.223 2.224 2.2 2.2 0 002.223 2.224h21.474a2.2 2.2 0 002.222-2.224 2.2 2.2 0 00-2.222-2.224zM31.726 40.238H10.252a2.2 2.2 0 00-2.223 2.225 2.2 2.2 0 002.223 2.222h21.474a2.2 2.2 0 002.222-2.222 2.2 2.2 0 00-2.222-2.225zM31.726 48.369H10.252a2.2 2.2 0 00-2.223 2.225 2.2 2.2 0 002.223 2.222h21.474a2.2 2.2 0 002.222-2.222 2.2 2.2 0 00-2.222-2.225zM31.726 56.396H10.252a2.2 2.2 0 00-2.223 2.225 2.2 2.2 0 002.223 2.222h21.474a2.2 2.2 0 002.222-2.222 2.2 2.2 0 00-2.222-2.225zM31.726 64.423H10.252a2.2 2.2 0 00-2.223 2.224 2.2 2.2 0 002.223 2.223h21.474a2.2 2.2 0 002.222-2.223 2.2 2.2 0 00-2.222-2.224zM31.726 72.449H10.252a2.2 2.2 0 00-2.223 2.224 2.2 2.2 0 002.223 2.223h21.474a2.2 2.2 0 002.222-2.223 2.2 2.2 0 00-2.222-2.224zM31.726 80.581H10.252a2.2 2.2 0 00-2.223 2.224 2.2 2.2 0 002.223 2.222h21.474a2.2 2.2 0 002.222-2.222 2.2 2.2 0 00-2.222-2.224z"/><path fill="#d7cec6" d="M31.726 0H10.252A10.263 10.263 0 000 10.25V82.7a10.315 10.315 0 0010.252 10.354h21.474a2.2 2.2 0 002.222-2.223 2.2 2.2 0 00-2.222-2.224H10.252a5.741 5.741 0 01-5.8-5.8V10.253a5.741 5.741 0 015.8-5.8h21.474a2.2 2.2 0 002.222-2.223A2.2 2.2 0 0031.726 0zM75.194 87.843a9.827 9.827 0 005.12-1.4l.256-.155 6.152 6.154a2.134 2.134 0 001.606.617 2.132 2.132 0 001.607-.618 2.267 2.267 0 00.668-1.65 1.987 1.987 0 00-.655-1.443l-6.274-6.165.157-.259a9.8 9.8 0 001.4-5.119v-5.212A10.052 10.052 0 0075.19 62.552h-5.594v-16.02a2.592 2.592 0 00-.647-1.637l-3.686-3.571 3.611-3.61a2.134 2.134 0 00.617-1.606V2.229a2.022 2.022 0 00-.527-1.552 2.137 2.137 0 00-1.593-.672 2.2 2.2 0 00-2.222 2.224v33l-2.989 2.988-2.99-2.988v-33A2.2 2.2 0 0056.948.005a2.2 2.2 0 00-2.224 2.224v33.879a2.59 2.59 0 00.646 1.637l3.687 3.571-3.612 3.61a2.24 2.24 0 00-.721 1.606v16.02h-5.6a10.052 10.052 0 00-10.041 10.041v5.212a10.054 10.054 0 0010.041 10.042 10.053 10.053 0 0010.041-10.042v-30.39l2.99-2.988 2.989 2.988v30.39a10.053 10.053 0 0010.05 10.038zM69.6 66.994h5.594a5.534 5.534 0 015.594 5.595v5.212a5.535 5.535 0 01-5.594 5.6 5.535 5.535 0 01-5.594-5.6zM54.728 77.801a5.536 5.536 0 01-5.6 5.6 5.535 5.535 0 01-5.594-5.6v-5.212a5.534 5.534 0 015.594-5.595h5.6z"/></svg>