<svg xmlns="http://www.w3.org/2000/svg" width="239" height="28.875" viewBox="0 0 239 28.875"><g data-name="Group 119" fill="#d7cec6"><path data-name="Path 104" d="M.227 8.144c0-2.9-.113-5.182-.227-7.462h4.385l.229 4.443h.17A9.53 9.53 0 0113.499.056a8.129 8.129 0 017.744 5.525h.114a10.906 10.906 0 013.132-3.589A9.246 9.246 0 0130.526.057c3.7 0 9.113 2.393 9.113 11.959v16.233h-4.9V12.642c0-5.352-1.994-8.485-5.981-8.485a6.583 6.583 0 00-5.979 4.5 8.859 8.859 0 00-.4 2.506v17.086h-4.9V11.732c0-4.442-1.935-7.574-5.751-7.574-3.074 0-5.411 2.505-6.209 5.01a6.935 6.935 0 00-.4 2.449v16.63h-4.9z"/><path data-name="Path 105" d="M47.154 15.32c.113 6.777 4.385 9.567 9.4 9.567a19 19 0 007.634-1.367l.909 3.531a22.429 22.429 0 01-9.224 1.766c-8.428 0-13.557-5.638-13.557-13.9 0-8.373 4.955-14.921 12.987-14.921 9 0 11.331 7.916 11.331 12.985a12.85 12.85 0 01-.17 2.392zm14.638-3.587c.056-3.132-1.31-8.144-6.891-8.144-5.128 0-7.291 4.67-7.689 8.144z"/><path data-name="Path 106" d="M90.208 27.28a19.388 19.388 0 01-7.915 1.595c-8.316 0-13.727-5.638-13.727-14.126S74.375.056 83.373.056a15.8 15.8 0 016.95 1.482l-1.141 3.815a12.287 12.287 0 00-5.81-1.31c-6.321 0-9.738 4.728-9.738 10.479 0 6.378 4.1 10.307 9.569 10.307a14.348 14.348 0 006.151-1.31z"/><path data-name="Path 107" d="M96.93.683l3.7 13.954c.74 3.075 1.479 5.979 1.995 8.827h.17c.626-2.792 1.538-5.753 2.448-8.77l4.5-14.011h4.213l4.271 13.783a109.633 109.633 0 012.449 9h.169a82.731 82.731 0 012.108-8.941l3.93-13.84h4.956l-8.886 27.566h-4.555l-4.214-13.158c-.968-3.132-1.766-5.865-2.45-9.111h-.114a82.276 82.276 0 01-2.506 9.168l-4.44 13.1h-4.558L91.802.684z"/><path data-name="Path 108" d="M152.852 21.642a45.818 45.818 0 00.4 6.606h-4.5l-.456-3.475h-.169a10.187 10.187 0 01-8.43 4.1c-5.581 0-8.428-3.931-8.428-7.917 0-6.663 5.92-10.308 16.571-10.251v-.569c0-2.279-.626-6.436-6.265-6.38a13.292 13.292 0 00-7.233 2.052l-1.138-3.361a17.835 17.835 0 019.113-2.393c8.485 0 10.533 5.753 10.533 11.277zm-4.9-7.462c-5.466-.113-11.673.854-11.673 6.208a4.391 4.391 0 004.67 4.784 6.956 6.956 0 006.777-4.614 5.106 5.106 0 00.227-1.593z"/><path data-name="Path 109" d="M198.486 21.642a47.809 47.809 0 00-1.092 6.606h-4.5l.331-3.475h-.172a13.023 13.023 0 01-9.355 4.1c-5.58 0-7.541-3.931-6.641-7.917 1.5-6.663 8.248-10.308 18.887-10.251l.129-.569c.514-2.279.826-6.436-4.825-6.38a15.731 15.731 0 00-7.694 2.052l-.382-3.361a20.953 20.953 0 019.652-2.393c8.488 0 9.238 5.753 7.989 11.277zm-3.215-7.462c-5.44-.113-11.865.854-13.073 6.208-.747 3.3 1.083 4.784 3.588 4.784a9.174 9.174 0 007.819-4.614 6.035 6.035 0 00.587-1.593z"/><path data-name="Path 110" d="M174.837 27.167a19.722 19.722 0 01-8.37 1.708c-7.475 0-11.123-4.784-11.123-10.651 0-9.452 7.293-18.167 17.7-18.167a14.245 14.245 0 016.041 1.253l-1.435 3.7a11.745 11.745 0 00-4.9-1.024c-7.535 0-12.261 7.061-12.261 13.609 0 4.5 2.453 7.406 7.178 7.406a15.6 15.6 0 006.7-1.538z"/><path data-name="Path 111" d="M199.849 28.248l3.527-17.77c.719-3.587 1.135-7.231 1.435-9.8h4.363a80.075 80.075 0 01-.775 5.981h.177c1.917-3.759 4.965-6.607 8.852-6.607a11.219 11.219 0 011.436.114l-.957 4.67a8.9 8.9 0 00-1.377-.113c-4.244 0-8.072 4.955-9.326 11.332l-2.392 12.189z"/><path data-name="Path 112" d="M235.293 26.71a21.514 21.514 0 01-9.569 2.165c-7.653 0-11-5.012-11-11.106 0-8.314 6.46-17.712 15.787-17.712 5.5 0 8.494 3.133 8.494 7.119 0 7.233-8.552 9.111-19.255 8.943a10.909 10.909 0 00.6 5.238c1.133 2.505 3.468 3.7 6.458 3.7a16.839 16.839 0 007.774-1.879zm-1.077-19.476c0-2.223-1.794-3.476-4.427-3.476-4.722 0-8.25 4.387-9.446 8.715 7.772.113 13.873-.911 13.873-5.182z"/></g></svg>