<svg xmlns="http://www.w3.org/2000/svg" width="23" height="190.355" viewBox="0 0 23 190.355"><defs/><g fill="#d7cec6"><path d="M6.488 190.174c-2.314 0-4.128.09-5.944.181v-3.488l3.539-.182v-.135a7.591 7.591 0 01-4.038-6.941 6.475 6.475 0 014.4-6.169v-.091a8.684 8.684 0 01-2.859-2.494 7.364 7.364 0 01-1.542-4.808c0-2.948 1.906-7.258 9.525-7.258h12.929v3.9H10.069c-4.263 0-6.757 1.588-6.757 4.763a5.243 5.243 0 003.582 4.762 7.079 7.079 0 002 .319h13.604v3.9H9.343c-3.538 0-6.032 1.542-6.032 4.581a5.943 5.943 0 005.941 5.261h13.245v3.9zM12.201 152.797c5.4-.091 7.62-3.494 7.62-7.484a15.132 15.132 0 00-1.089-6.08l2.813-.726a17.877 17.877 0 011.407 7.346c0 6.713-4.491 10.8-11.068 10.8C5.215 156.653 0 152.706 0 146.309c0-7.167 6.3-9.021 10.342-9.021a10.213 10.213 0 011.9.134zm-2.858-11.659c-2.495-.045-6.487 1.043-6.487 5.488 0 4.084 3.72 5.807 6.487 6.124zM21.727 118.506a15.44 15.44 0 011.27 6.3c0 6.622-4.491 10.933-11.25 10.933s-11.7-4.627-11.7-11.794a12.6 12.6 0 011.18-5.536l3.038.908a9.8 9.8 0 00-1.044 4.628c0 5.035 3.766 7.756 8.346 7.756 5.081 0 8.209-3.267 8.209-7.622a11.426 11.426 0 00-1.043-4.9zM.543 113.154l11.115-2.948c2.449-.59 4.761-1.178 7.03-1.589v-.136c-2.223-.5-4.582-1.225-6.986-1.951L.543 102.946v-3.355l10.978-3.4a86.696 86.696 0 017.167-1.95v-.135a65.869 65.869 0 01-7.122-1.679L.543 89.297v-3.948l21.955 7.078v3.629l-10.48 3.357c-2.493.77-4.671 1.406-7.258 1.951v.091a65.73 65.73 0 017.309 1.995l10.435 3.537v3.629L.548 117.238zM17.237 68.614a36.434 36.434 0 005.261-.321v3.588l-2.768.363v.135a8.113 8.113 0 013.267 6.714c0 4.445-3.131 6.712-6.3 6.712-5.307 0-8.21-4.715-8.165-13.2h-.453c-1.814 0-5.126.5-5.081 4.989a10.593 10.593 0 001.634 5.761l-2.677.907a14.219 14.219 0 01-1.906-7.259c0-6.758 4.582-8.389 8.982-8.389zm-5.943 3.9c-.091 4.355.68 9.3 4.944 9.3a3.5 3.5 0 003.8-3.159 3.377 3.377 0 00.007-.56 5.54 5.54 0 00-3.675-5.4 4.032 4.032 0 00-1.268-.18zM17.237 32.267a37.925 37.925 0 005.261.87v3.583l-2.768-.264v.137a10.365 10.365 0 013.267 7.451c0 4.445-3.131 6.007-6.3 5.289-5.307-1.2-8.21-6.569-8.165-15.044l-.453-.1c-1.814-.414-5.126-.657-5.081 3.843a12.528 12.528 0 001.634 6.128l-2.677.3a16.7 16.7 0 01-1.906-7.687c0-6.761 4.582-7.362 8.982-6.364zm-5.943 2.561c-.091 4.333.68 9.451 4.944 10.413 2.63.6 3.81-.863 3.81-2.858a7.3 7.3 0 00-3.675-6.227 4.776 4.776 0 00-1.268-.468zM21.637 51.105a15.706 15.706 0 011.36 6.666c0 5.954-3.81 8.859-8.483 8.859A14.253 14.253 0 01.045 52.596v-.063a11.361 11.361 0 011-4.811l2.943 1.141a9.334 9.334 0 00-.815 3.906c0 6 5.624 9.765 10.839 9.765 3.584 0 5.9-1.953 5.9-5.717a12.422 12.422 0 00-1.224-5.336zM22.498 31.181L8.345 28.372c-2.858-.573-5.759-.9-7.8-1.141v-3.475c1.543.141 3.04.332 4.764.623v-.141C2.314 22.71.046 20.284.046 17.187a8.892 8.892 0 01.092-1.141l3.719.762a6.959 6.959 0 00-.09 1.1c0 3.381 3.946 6.429 9.021 7.429l9.707 1.9zM21.274 2.952a17.135 17.135 0 011.724 7.621c0 6.1-3.992 8.765-8.846 8.765C7.531 19.338.045 14.193.045 6.765.045 2.382 2.54 0 5.716 0c5.761 0 7.258 6.811 7.123 15.336a8.692 8.692 0 004.172-.476 5.206 5.206 0 002.948-5.143 13.408 13.408 0 00-1.5-6.193zM5.762 3.81c-1.77 0-2.769 1.428-2.769 3.525 0 3.761 3.495 6.571 6.941 7.524.091-6.191-.726-11.049-4.127-11.049z"/></g></svg>